<svg xmlns="http://www.w3.org/2000/svg" xmlns:xlink="http://www.w3.org/1999/xlink" width="1500" zoomAndPan="magnify" viewBox="0 0 1125 60" height="80" preserveAspectRatio="xMidYMid meet" version="1.0"><defs><filter x="0%" y="0%" width="100%" height="100%" id="c9e759190d"><feColorMatrix values="0 0 0 0 1 0 0 0 0 1 0 0 0 0 1 0 0 0 1 0" color-interpolation-filters="sRGB"/></filter><mask id="958887b0dc"><g filter="url(#c9e759190d)"><rect x="-112.5" width="1350" fill="#000000" y="-6" height="72" fill-opacity="0.12"/></g></mask><clipPath id="4a2e69c5d3"><path d="M 0 0 L 267 0 L 267 60 L 0 60 Z M 0 0 " clip-rule="nonzero"/></clipPath><clipPath id="57aa50890c"><path d="M 132.699219 -134.378906 L 297.101562 30.023438 L 132.699219 194.425781 L -31.703125 30.023438 Z M 132.699219 -134.378906 " clip-rule="nonzero"/></clipPath><clipPath id="c231caa849"><path d="M 132.699219 -134.378906 L 297.101562 30.023438 L 132.699219 194.425781 L -31.703125 30.023438 Z M 132.699219 -134.378906 " clip-rule="nonzero"/></clipPath><clipPath id="938bea0214"><rect x="0" width="298" y="0" height="60"/></clipPath><mask id="a347f06567"><g filter="url(#c9e759190d)"><rect x="-112.5" width="1350" fill="#000000" y="-6" height="72" fill-opacity="0.12"/></g></mask><clipPath id="c2c2bfcae8"><path d="M 31 0 L 300 0 L 300 60 L 31 60 Z M 31 0 " clip-rule="nonzero"/></clipPath><clipPath id="223553b800"><path d="M 165.117188 -134.378906 L 329.519531 30.023438 L 165.117188 194.425781 L 0.714844 30.023438 Z M 165.117188 -134.378906 " clip-rule="nonzero"/></clipPath><clipPath id="ea8163dc6e"><path d="M 165.117188 -134.378906 L 329.519531 30.023438 L 165.117188 194.425781 L 0.714844 30.023438 Z M 165.117188 -134.378906 " clip-rule="nonzero"/></clipPath><clipPath id="d2421381b9"><rect x="0" width="330" y="0" height="60"/></clipPath><mask id="eec743b2c0"><g filter="url(#c9e759190d)"><rect x="-112.5" width="1350" fill="#000000" y="-6" height="72" fill-opacity="0.12"/></g></mask><clipPath id="b5ba16df96"><path d="M 31 0 L 300 0 L 300 60 L 31 60 Z M 31 0 " clip-rule="nonzero"/></clipPath><clipPath id="7b084220b8"><path d="M 165.210938 -134.378906 L 329.613281 30.023438 L 165.210938 194.425781 L 0.808594 30.023438 Z M 165.210938 -134.378906 " clip-rule="nonzero"/></clipPath><clipPath id="664fc87d9c"><path d="M 165.210938 -134.378906 L 329.613281 30.023438 L 165.210938 194.425781 L 0.808594 30.023438 Z M 165.210938 -134.378906 " clip-rule="nonzero"/></clipPath><clipPath id="1b0c425ec1"><rect x="0" width="330" y="0" height="60"/></clipPath><mask id="fdf5004205"><g filter="url(#c9e759190d)"><rect x="-112.5" width="1350" fill="#000000" y="-6" height="72" fill-opacity="0.12"/></g></mask><clipPath id="40844f0116"><path d="M 31 0 L 300 0 L 300 60 L 31 60 Z M 31 0 " clip-rule="nonzero"/></clipPath><clipPath id="00e31d75f1"><path d="M 165.308594 -134.378906 L 329.710938 30.023438 L 165.308594 194.425781 L 0.90625 30.023438 Z M 165.308594 -134.378906 " clip-rule="nonzero"/></clipPath><clipPath id="ecbe9bd9b4"><path d="M 165.308594 -134.378906 L 329.710938 30.023438 L 165.308594 194.425781 L 0.90625 30.023438 Z M 165.308594 -134.378906 " clip-rule="nonzero"/></clipPath><clipPath id="c3ccef5a07"><rect x="0" width="330" y="0" height="60"/></clipPath><mask id="b7b638de13"><g filter="url(#c9e759190d)"><rect x="-112.5" width="1350" fill="#000000" y="-6" height="72" fill-opacity="0.12"/></g></mask><clipPath id="4edd22dc32"><path d="M 31 0 L 97 0 L 97 60 L 31 60 Z M 31 0 " clip-rule="nonzero"/></clipPath><clipPath id="e8b9280cfa"><path d="M 165.40625 -134.378906 L 329.808594 30.023438 L 165.40625 194.425781 L 1.003906 30.023438 Z M 165.40625 -134.378906 " clip-rule="nonzero"/></clipPath><clipPath id="0a0bae559a"><path d="M 165.40625 -134.378906 L 329.808594 30.023438 L 165.40625 194.425781 L 1.003906 30.023438 Z M 165.40625 -134.378906 " clip-rule="nonzero"/></clipPath><clipPath id="8947ef389b"><rect x="0" width="97" y="0" height="60"/></clipPath></defs><rect x="-112.5" width="1350" fill="#ffffff" y="-6" height="72" fill-opacity="1"/><rect x="-112.5" width="1350" fill="#ff914d" y="-6" height="72" fill-opacity="1"/><g mask="url(#958887b0dc)"><g transform="matrix(1, 0, 0, 1, 0, -0.000000000000001479)"><g clip-path="url(#938bea0214)"><g clip-path="url(#4a2e69c5d3)"><g clip-path="url(#57aa50890c)"><g clip-path="url(#c231caa849)"><path fill="#fa5300" d="M 264.75 45.847656 C 264.753906 47.269531 263.597656 48.421875 262.179688 48.421875 L 216.878906 48.421875 C 215.457031 48.421875 214.304688 47.269531 214.304688 45.847656 L 214.304688 14.113281 C 214.304688 12.695312 215.457031 11.539062 216.878906 11.539062 L 262.179688 11.539062 C 263.597656 11.539062 264.753906 12.691406 264.75 14.113281 Z M 263.277344 57.355469 C 263.277344 57.675781 263.015625 57.9375 262.695312 57.9375 L 259.023438 57.9375 C 258.699219 57.9375 258.433594 57.675781 258.4375 57.355469 L 258.4375 51.347656 C 258.4375 51.027344 258.699219 50.765625 259.019531 50.765625 L 262.691406 50.765625 C 263.011719 50.765625 263.277344 51.03125 263.277344 51.347656 Z M 251.628906 57.355469 C 251.628906 57.675781 251.363281 57.9375 251.042969 57.9375 L 247.371094 57.9375 C 247.046875 57.9375 246.785156 57.675781 246.789062 57.355469 L 246.785156 51.347656 C 246.789062 51.027344 247.050781 50.765625 247.371094 50.765625 L 251.042969 50.765625 C 251.367188 50.765625 251.628906 51.027344 251.628906 51.347656 Z M 239.972656 57.351562 C 239.972656 57.675781 239.714844 57.9375 239.394531 57.9375 L 235.71875 57.9375 C 235.398438 57.9375 235.136719 57.675781 235.136719 57.355469 L 235.136719 51.347656 C 235.136719 51.027344 235.398438 50.765625 235.71875 50.765625 L 239.390625 50.765625 C 239.714844 50.765625 239.972656 51.03125 239.972656 51.347656 Z M 228.324219 57.355469 C 228.324219 57.675781 228.0625 57.9375 227.742188 57.9375 L 224.070312 57.9375 C 223.746094 57.9375 223.488281 57.675781 223.488281 57.355469 L 223.488281 51.347656 C 223.488281 51.027344 223.746094 50.765625 224.066406 50.765625 L 227.742188 50.765625 C 228.0625 50.765625 228.324219 51.027344 228.324219 51.347656 Z M 216.675781 57.355469 C 216.675781 57.675781 216.410156 57.9375 216.089844 57.9375 L 212.417969 57.9375 C 212.09375 57.9375 211.835938 57.675781 211.835938 57.355469 L 211.835938 51.347656 C 211.835938 51.027344 212.097656 50.765625 212.417969 50.765625 L 216.089844 50.765625 C 216.414062 50.765625 216.675781 51.027344 216.675781 51.347656 Z M 211.335938 45.847656 C 211.339844 47.269531 210.183594 48.421875 208.765625 48.421875 L 163.464844 48.421875 C 162.042969 48.421875 160.890625 47.269531 160.890625 45.847656 L 160.890625 14.113281 C 160.890625 12.695312 162.042969 11.539062 163.464844 11.539062 L 208.765625 11.539062 C 210.183594 11.539062 211.339844 12.691406 211.335938 14.113281 Z M 205.027344 57.355469 C 205.027344 57.675781 204.761719 57.9375 204.441406 57.9375 L 200.769531 57.9375 C 200.449219 57.9375 200.183594 57.675781 200.183594 57.355469 L 200.183594 51.347656 C 200.183594 51.027344 200.449219 50.765625 200.769531 50.765625 L 204.4375 50.765625 C 204.761719 50.765625 205.027344 51.027344 205.027344 51.347656 Z M 193.375 57.355469 C 193.371094 57.675781 193.113281 57.9375 192.792969 57.9375 L 189.117188 57.9375 C 188.800781 57.9375 188.535156 57.675781 188.535156 57.355469 L 188.535156 51.347656 C 188.535156 51.027344 188.796875 50.765625 189.113281 50.765625 L 192.789062 50.765625 C 193.113281 50.765625 193.375 51.027344 193.371094 51.347656 Z M 181.722656 57.355469 C 181.722656 57.675781 181.457031 57.9375 181.140625 57.9375 L 177.46875 57.9375 C 177.144531 57.9375 176.886719 57.675781 176.886719 57.355469 L 176.886719 51.347656 C 176.886719 51.027344 177.144531 50.765625 177.464844 50.765625 L 181.144531 50.765625 C 181.460938 50.765625 181.722656 51.027344 181.722656 51.347656 Z M 170.074219 57.355469 C 170.074219 57.675781 169.808594 57.9375 169.488281 57.9375 L 165.816406 57.9375 C 165.496094 57.9375 165.230469 57.675781 165.230469 57.355469 L 165.230469 51.347656 C 165.230469 51.027344 165.496094 50.765625 165.816406 50.765625 L 169.488281 50.765625 C 169.8125 50.765625 170.074219 51.027344 170.074219 51.347656 Z M 158.421875 8.609375 C 158.421875 8.933594 158.160156 9.195312 157.839844 9.195312 L 154.167969 9.195312 C 153.84375 9.195312 153.582031 8.933594 153.582031 8.609375 L 153.582031 2.605469 C 153.582031 2.28125 153.847656 2.023438 154.167969 2.023438 L 157.839844 2.023438 C 158.160156 2.023438 158.421875 2.28125 158.421875 2.605469 Z M 158.421875 57.355469 C 158.421875 57.675781 158.160156 57.9375 157.839844 57.9375 L 154.167969 57.9375 C 153.847656 57.9375 153.582031 57.675781 153.582031 57.355469 L 153.582031 51.347656 C 153.582031 51.027344 153.84375 50.765625 154.167969 50.765625 L 157.839844 50.765625 C 158.160156 50.765625 158.421875 51.027344 158.421875 51.347656 Z M 146.769531 57.355469 C 146.769531 57.675781 146.511719 57.9375 146.1875 57.9375 L 142.515625 57.9375 C 142.195312 57.9375 141.933594 57.675781 141.933594 57.355469 L 141.933594 51.347656 C 141.933594 51.027344 142.195312 50.765625 142.511719 50.765625 L 146.191406 50.765625 C 146.511719 50.765625 146.769531 51.027344 146.769531 51.347656 Z M 135.121094 57.355469 C 135.121094 57.675781 134.855469 57.9375 134.539062 57.9375 L 130.863281 57.9375 C 130.542969 57.9375 130.285156 57.675781 130.28125 57.355469 L 130.285156 51.347656 C 130.28125 51.027344 130.542969 50.765625 130.867188 50.765625 L 134.539062 50.765625 C 134.859375 50.765625 135.121094 51.027344 135.121094 51.347656 Z M 123.46875 57.355469 C 123.46875 57.675781 123.207031 57.9375 122.886719 57.9375 L 119.214844 57.9375 C 118.894531 57.9375 118.628906 57.675781 118.628906 57.355469 L 118.628906 51.347656 C 118.628906 51.027344 118.890625 50.765625 119.214844 50.765625 L 122.886719 50.765625 C 123.207031 50.765625 123.46875 51.027344 123.46875 51.347656 Z M 111.820312 57.355469 C 111.824219 57.675781 111.558594 57.9375 111.234375 57.9375 L 107.566406 57.9375 C 107.242188 57.9375 106.980469 57.675781 106.980469 57.355469 L 106.980469 51.347656 C 106.980469 51.027344 107.242188 50.765625 107.566406 50.765625 L 111.238281 50.765625 C 111.558594 50.765625 111.820312 51.027344 111.820312 51.347656 Z M 104.507812 45.847656 C 104.507812 47.269531 103.355469 48.421875 101.9375 48.421875 L 56.636719 48.421875 C 55.214844 48.421875 54.0625 47.269531 54.0625 45.847656 L 54.0625 14.113281 C 54.0625 12.695312 55.214844 11.539062 56.636719 11.539062 L 101.933594 11.539062 C 103.355469 11.539062 104.507812 12.695312 104.507812 14.113281 Z M 100.167969 57.355469 C 100.167969 57.675781 99.910156 57.9375 99.585938 57.941406 L 95.910156 57.9375 C 95.59375 57.9375 95.332031 57.675781 95.332031 57.355469 L 95.332031 51.347656 C 95.332031 51.03125 95.59375 50.765625 95.914062 50.765625 L 99.585938 50.765625 C 99.910156 50.765625 100.167969 51.027344 100.167969 51.347656 Z M 88.519531 57.355469 C 88.519531 57.675781 88.257812 57.9375 87.9375 57.941406 L 84.261719 57.9375 C 83.941406 57.9375 83.679688 57.675781 83.683594 57.351562 L 83.679688 51.347656 C 83.679688 51.03125 83.941406 50.765625 84.261719 50.765625 L 87.9375 50.765625 C 88.253906 50.765625 88.519531 51.027344 88.519531 51.347656 Z M 76.867188 57.355469 C 76.871094 57.675781 76.605469 57.9375 76.285156 57.941406 L 72.613281 57.9375 C 72.289062 57.9375 72.027344 57.675781 72.027344 57.355469 L 72.027344 51.347656 C 72.027344 51.027344 72.289062 50.765625 72.613281 50.765625 L 76.285156 50.765625 C 76.605469 50.765625 76.871094 51.027344 76.871094 51.347656 Z M 65.21875 57.355469 C 65.21875 57.675781 64.957031 57.9375 64.632812 57.941406 L 60.960938 57.9375 C 60.640625 57.9375 60.378906 57.675781 60.378906 57.355469 L 60.378906 51.347656 C 60.378906 51.027344 60.640625 50.765625 60.964844 50.765625 L 64.636719 50.765625 C 64.957031 50.765625 65.21875 51.03125 65.21875 51.347656 Z M 53.566406 8.609375 C 53.566406 8.933594 53.308594 9.195312 52.984375 9.195312 L 49.308594 9.195312 C 48.992188 9.195312 48.730469 8.933594 48.730469 8.609375 L 48.730469 2.605469 C 48.730469 2.28125 48.992188 2.023438 49.308594 2.023438 L 52.984375 2.023438 C 53.308594 2.023438 53.566406 2.28125 53.566406 2.605469 Z M 53.566406 57.355469 C 53.566406 57.675781 53.308594 57.9375 52.984375 57.941406 L 49.308594 57.9375 C 48.992188 57.9375 48.730469 57.675781 48.730469 57.351562 L 48.730469 51.347656 C 48.726562 51.027344 48.992188 50.765625 49.308594 50.765625 L 52.984375 50.765625 C 53.308594 50.765625 53.566406 51.027344 53.566406 51.347656 Z M 3.222656 48.421875 C 1.800781 48.421875 0.644531 47.269531 0.648438 45.847656 L 0.648438 14.113281 C 0.648438 12.691406 1.800781 11.539062 3.222656 11.539062 L 48.519531 11.539062 C 49.941406 11.539062 51.09375 12.695312 51.09375 14.113281 L 51.09375 45.847656 C 51.09375 47.269531 49.941406 48.421875 48.519531 48.421875 Z M 41.914062 57.355469 C 41.917969 57.675781 41.652344 57.9375 41.335938 57.9375 L 37.660156 57.9375 C 37.339844 57.9375 37.078125 57.675781 37.078125 57.351562 L 37.078125 51.347656 C 37.082031 51.027344 37.335938 50.765625 37.660156 50.765625 L 41.335938 50.765625 C 41.652344 50.765625 41.917969 51.03125 41.917969 51.347656 Z M 30.265625 57.355469 C 30.265625 57.675781 30.003906 57.9375 29.679688 57.9375 L 26.007812 57.941406 C 25.6875 57.9375 25.425781 57.675781 25.425781 57.351562 L 25.425781 51.347656 C 25.425781 51.027344 25.6875 50.765625 26.011719 50.765625 L 29.683594 50.765625 C 30.003906 50.765625 30.265625 51.03125 30.265625 51.347656 Z M 18.617188 57.355469 C 18.617188 57.675781 18.355469 57.9375 18.03125 57.941406 L 14.363281 57.9375 C 14.039062 57.9375 13.777344 57.675781 13.777344 57.351562 L 13.777344 51.347656 C 13.773438 51.03125 14.039062 50.765625 14.359375 50.765625 L 18.03125 50.765625 C 18.355469 50.765625 18.617188 51.03125 18.617188 51.347656 Z M 6.964844 57.355469 C 6.964844 57.675781 6.707031 57.9375 6.382812 57.9375 L 2.707031 57.941406 C 2.390625 57.9375 2.125 57.675781 2.128906 57.351562 L 2.125 51.347656 C 2.128906 51.027344 2.390625 50.765625 2.707031 50.765625 L 6.382812 50.765625 C 6.707031 50.765625 6.964844 51.03125 6.964844 51.347656 Z M 2.128906 2.605469 C 2.125 2.28125 2.390625 2.023438 2.707031 2.023438 L 6.382812 2.023438 C 6.707031 2.023438 6.964844 2.28125 6.964844 2.601562 L 6.964844 8.609375 C 6.964844 8.933594 6.707031 9.195312 6.382812 9.195312 L 2.707031 9.195312 C 2.390625 9.195312 2.125 8.933594 2.125 8.609375 Z M 13.777344 2.601562 C 13.777344 2.28125 14.039062 2.023438 14.363281 2.023438 L 18.03125 2.023438 C 18.355469 2.023438 18.617188 2.28125 18.617188 2.601562 L 18.617188 8.609375 C 18.617188 8.933594 18.355469 9.195312 18.03125 9.195312 L 14.359375 9.195312 C 14.039062 9.195312 13.777344 8.933594 13.777344 8.609375 Z M 25.425781 2.601562 C 25.425781 2.28125 25.6875 2.023438 26.011719 2.023438 L 29.683594 2.023438 C 30.003906 2.023438 30.265625 2.28125 30.269531 2.601562 L 30.265625 8.609375 C 30.265625 8.933594 30.003906 9.195312 29.683594 9.195312 L 26.011719 9.195312 C 25.691406 9.195312 25.425781 8.933594 25.425781 8.609375 Z M 37.078125 2.605469 C 37.078125 2.28125 37.339844 2.023438 37.660156 2.023438 L 41.335938 2.023438 C 41.652344 2.023438 41.917969 2.28125 41.917969 2.601562 L 41.917969 8.609375 C 41.917969 8.933594 41.652344 9.195312 41.335938 9.195312 L 37.660156 9.195312 C 37.335938 9.195312 37.078125 8.933594 37.078125 8.609375 Z M 60.378906 2.601562 C 60.378906 2.28125 60.640625 2.023438 60.960938 2.023438 L 64.632812 2.023438 C 64.957031 2.023438 65.21875 2.28125 65.21875 2.601562 L 65.21875 8.609375 C 65.21875 8.933594 64.957031 9.195312 64.636719 9.195312 L 60.964844 9.195312 C 60.640625 9.195312 60.378906 8.933594 60.378906 8.609375 Z M 72.027344 2.601562 C 72.027344 2.28125 72.289062 2.023438 72.613281 2.023438 L 76.285156 2.023438 C 76.605469 2.023438 76.871094 2.28125 76.867188 2.605469 L 76.871094 8.609375 C 76.867188 8.933594 76.605469 9.195312 76.285156 9.195312 L 72.613281 9.195312 C 72.289062 9.195312 72.027344 8.933594 72.027344 8.609375 Z M 83.683594 2.605469 C 83.679688 2.28125 83.941406 2.023438 84.261719 2.023438 L 87.9375 2.023438 C 88.253906 2.023438 88.519531 2.28125 88.519531 2.605469 L 88.519531 8.609375 C 88.519531 8.933594 88.253906 9.195312 87.9375 9.195312 L 84.261719 9.195312 C 83.941406 9.195312 83.683594 8.933594 83.679688 8.609375 Z M 95.332031 2.601562 C 95.332031 2.28125 95.59375 2.023438 95.910156 2.023438 L 99.585938 2.023438 C 99.910156 2.023438 100.167969 2.28125 100.167969 2.605469 L 100.167969 8.609375 C 100.167969 8.933594 99.910156 9.195312 99.585938 9.195312 L 95.914062 9.195312 C 95.59375 9.195312 95.328125 8.933594 95.332031 8.609375 Z M 106.980469 2.601562 C 106.980469 2.28125 107.242188 2.023438 107.566406 2.023438 L 111.234375 2.023438 C 111.558594 2.023438 111.824219 2.28125 111.824219 2.601562 L 111.820312 8.609375 C 111.820312 8.933594 111.558594 9.195312 111.238281 9.195312 L 107.566406 9.195312 C 107.242188 9.199219 106.980469 8.933594 106.980469 8.609375 Z M 118.628906 2.605469 C 118.628906 2.28125 118.894531 2.023438 119.214844 2.023438 L 122.886719 2.023438 C 123.207031 2.023438 123.472656 2.28125 123.46875 2.605469 L 123.472656 8.609375 C 123.46875 8.933594 123.207031 9.195312 122.886719 9.195312 L 119.214844 9.195312 C 118.894531 9.195312 118.628906 8.933594 118.628906 8.609375 Z M 130.285156 2.601562 C 130.285156 2.28125 130.542969 2.023438 130.863281 2.023438 L 134.539062 2.023438 C 134.855469 2.023438 135.121094 2.28125 135.121094 2.605469 L 135.121094 8.613281 C 135.121094 8.933594 134.859375 9.195312 134.539062 9.195312 L 130.863281 9.195312 C 130.542969 9.195312 130.28125 8.933594 130.285156 8.609375 Z M 155.351562 11.539062 C 156.769531 11.539062 157.925781 12.691406 157.921875 14.113281 L 157.921875 45.847656 C 157.921875 47.269531 156.769531 48.421875 155.351562 48.421875 L 110.050781 48.421875 C 108.628906 48.421875 107.476562 47.269531 107.476562 45.847656 L 107.476562 14.113281 C 107.476562 12.695312 108.628906 11.539062 110.050781 11.539062 Z M 141.933594 2.605469 C 141.933594 2.28125 142.195312 2.023438 142.511719 2.023438 L 146.1875 2.023438 C 146.511719 2.023438 146.769531 2.28125 146.769531 2.605469 L 146.769531 8.613281 C 146.769531 8.933594 146.511719 9.195312 146.1875 9.195312 L 142.515625 9.195312 C 142.195312 9.195312 141.933594 8.933594 141.933594 8.609375 Z M 165.230469 2.605469 C 165.230469 2.28125 165.496094 2.023438 165.816406 2.023438 L 169.488281 2.023438 C 169.808594 2.023438 170.074219 2.28125 170.074219 2.605469 L 170.074219 8.609375 C 170.074219 8.933594 169.8125 9.195312 169.488281 9.195312 L 165.816406 9.195312 C 165.496094 9.195312 165.230469 8.933594 165.230469 8.609375 Z M 176.886719 2.605469 C 176.886719 2.28125 177.144531 2.023438 177.46875 2.023438 L 181.140625 2.023438 C 181.457031 2.023438 181.722656 2.28125 181.722656 2.605469 L 181.722656 8.609375 C 181.722656 8.933594 181.460938 9.195312 181.144531 9.195312 L 177.464844 9.195312 C 177.144531 9.195312 176.886719 8.933594 176.886719 8.609375 Z M 188.535156 2.605469 C 188.535156 2.28125 188.800781 2.023438 189.117188 2.023438 L 192.792969 2.023438 C 193.113281 2.023438 193.371094 2.28125 193.371094 2.601562 L 193.371094 8.609375 C 193.375 8.933594 193.113281 9.195312 192.789062 9.195312 L 189.113281 9.195312 C 188.796875 9.195312 188.535156 8.933594 188.535156 8.609375 Z M 200.183594 2.605469 C 200.183594 2.28125 200.449219 2.023438 200.769531 2.023438 L 204.441406 2.023438 C 204.761719 2.023438 205.027344 2.28125 205.027344 2.605469 L 205.023438 8.609375 C 205.027344 8.933594 204.761719 9.195312 204.4375 9.195312 L 200.769531 9.195312 C 200.449219 9.195312 200.183594 8.933594 200.183594 8.609375 Z M 211.835938 2.605469 C 211.835938 2.28125 212.09375 2.023438 212.417969 2.023438 L 216.089844 2.023438 C 216.410156 2.023438 216.675781 2.28125 216.675781 2.605469 L 216.675781 8.613281 C 216.675781 8.933594 216.414062 9.195312 216.089844 9.195312 L 212.417969 9.195312 C 212.097656 9.195312 211.835938 8.933594 211.832031 8.609375 Z M 223.488281 2.605469 C 223.488281 2.28125 223.746094 2.023438 224.070312 2.023438 L 227.742188 2.023438 C 228.0625 2.023438 228.324219 2.28125 228.324219 2.601562 L 228.324219 8.609375 C 228.324219 8.933594 228.0625 9.195312 227.742188 9.195312 L 224.066406 9.195312 C 223.746094 9.195312 223.488281 8.933594 223.488281 8.609375 Z M 235.136719 2.605469 C 235.136719 2.28125 235.398438 2.023438 235.71875 2.023438 L 239.394531 2.023438 C 239.714844 2.023438 239.972656 2.28125 239.972656 2.601562 L 239.972656 8.609375 C 239.972656 8.933594 239.714844 9.195312 239.390625 9.195312 L 235.71875 9.195312 C 235.398438 9.195312 235.136719 8.933594 235.136719 8.609375 Z M 246.785156 2.605469 C 246.785156 2.28125 247.046875 2.023438 247.371094 2.023438 L 251.042969 2.023438 C 251.363281 2.023438 251.625 2.28125 251.628906 2.601562 L 251.628906 8.609375 C 251.628906 8.933594 251.367188 9.195312 251.042969 9.195312 L 247.371094 9.195312 C 247.050781 9.195312 246.789062 8.933594 246.785156 8.609375 Z M 258.433594 2.601562 C 258.4375 2.28125 258.699219 2.023438 259.023438 2.023438 L 262.695312 2.023438 C 263.015625 2.023438 263.277344 2.28125 263.277344 2.601562 L 263.277344 8.609375 C 263.277344 8.933594 263.015625 9.195312 262.691406 9.195312 L 259.019531 9.195312 C 258.699219 9.195312 258.4375 8.933594 258.433594 8.609375 Z M -1.367188 -0.328125 L -1.367188 60.292969 L 266.765625 60.292969 L 266.765625 -0.328125 L -1.367188 -0.328125 " fill-opacity="1" fill-rule="nonzero"/></g></g></g></g></g></g><g mask="url(#a347f06567)"><g transform="matrix(1, 0, 0, 1, 233, -0.000000000000001479)"><g clip-path="url(#d2421381b9)"><g clip-path="url(#c2c2bfcae8)"><g clip-path="url(#223553b800)"><g clip-path="url(#ea8163dc6e)"><path fill="#fa5300" d="M 297.167969 45.847656 C 297.167969 47.269531 296.015625 48.421875 294.59375 48.421875 L 249.292969 48.421875 C 247.875 48.421875 246.722656 47.269531 246.722656 45.847656 L 246.722656 14.113281 C 246.722656 12.695312 247.875 11.539062 249.292969 11.539062 L 294.59375 11.539062 C 296.015625 11.539062 297.167969 12.691406 297.167969 14.113281 Z M 295.695312 57.355469 C 295.691406 57.675781 295.429688 57.9375 295.109375 57.9375 L 291.4375 57.9375 C 291.113281 57.9375 290.851562 57.675781 290.851562 57.355469 L 290.851562 51.347656 C 290.851562 51.027344 291.117188 50.765625 291.4375 50.765625 L 295.109375 50.765625 C 295.429688 50.765625 295.691406 51.03125 295.691406 51.347656 Z M 284.042969 57.355469 C 284.042969 57.675781 283.78125 57.9375 283.460938 57.9375 L 279.789062 57.9375 C 279.464844 57.9375 279.203125 57.675781 279.203125 57.355469 L 279.203125 51.347656 C 279.203125 51.027344 279.464844 50.765625 279.785156 50.765625 L 283.457031 50.765625 C 283.78125 50.765625 284.042969 51.027344 284.042969 51.347656 Z M 272.390625 57.351562 C 272.390625 57.675781 272.132812 57.9375 271.808594 57.9375 L 268.136719 57.9375 C 267.816406 57.9375 267.550781 57.675781 267.554688 57.355469 L 267.554688 51.347656 C 267.554688 51.027344 267.816406 50.765625 268.132812 50.765625 L 271.808594 50.765625 C 272.132812 50.765625 272.390625 51.03125 272.390625 51.347656 Z M 260.742188 57.355469 C 260.742188 57.675781 260.476562 57.9375 260.160156 57.9375 L 256.484375 57.9375 C 256.160156 57.9375 255.902344 57.675781 255.902344 57.355469 L 255.902344 51.347656 C 255.902344 51.027344 256.164062 50.765625 256.484375 50.765625 L 260.160156 50.765625 C 260.480469 50.765625 260.742188 51.027344 260.738281 51.347656 Z M 249.09375 57.355469 C 249.089844 57.675781 248.828125 57.9375 248.507812 57.9375 L 244.835938 57.9375 C 244.511719 57.9375 244.25 57.675781 244.25 57.355469 L 244.25 51.347656 C 244.25 51.027344 244.511719 50.765625 244.832031 50.765625 L 248.503906 50.765625 C 248.828125 50.765625 249.09375 51.027344 249.09375 51.347656 Z M 243.753906 45.847656 C 243.753906 47.269531 242.601562 48.421875 241.179688 48.421875 L 195.878906 48.421875 C 194.460938 48.421875 193.308594 47.269531 193.308594 45.847656 L 193.308594 14.113281 C 193.308594 12.695312 194.460938 11.539062 195.878906 11.539062 L 241.179688 11.539062 C 242.601562 11.539062 243.753906 12.691406 243.753906 14.113281 Z M 237.441406 57.355469 C 237.441406 57.675781 237.179688 57.9375 236.855469 57.9375 L 233.1875 57.9375 C 232.863281 57.9375 232.601562 57.675781 232.601562 57.355469 L 232.601562 51.347656 C 232.601562 51.027344 232.863281 50.765625 233.183594 50.765625 L 236.855469 50.765625 C 237.179688 50.765625 237.441406 51.027344 237.441406 51.347656 Z M 225.789062 57.355469 C 225.789062 57.675781 225.527344 57.9375 225.207031 57.9375 L 221.53125 57.9375 C 221.214844 57.9375 220.953125 57.675781 220.949219 57.355469 L 220.953125 51.347656 C 220.953125 51.027344 221.214844 50.765625 221.53125 50.765625 L 225.207031 50.765625 C 225.53125 50.765625 225.789062 51.027344 225.789062 51.347656 Z M 214.140625 57.355469 C 214.136719 57.675781 213.875 57.9375 213.558594 57.9375 L 209.882812 57.9375 C 209.5625 57.9375 209.304688 57.675781 209.300781 57.355469 L 209.300781 51.347656 C 209.300781 51.027344 209.5625 50.765625 209.882812 50.765625 L 213.558594 50.765625 C 213.875 50.765625 214.140625 51.027344 214.140625 51.347656 Z M 202.488281 57.355469 C 202.488281 57.675781 202.226562 57.9375 201.90625 57.9375 L 198.234375 57.9375 C 197.914062 57.9375 197.648438 57.675781 197.648438 57.355469 L 197.648438 51.347656 C 197.648438 51.027344 197.910156 50.765625 198.234375 50.765625 L 201.902344 50.765625 C 202.226562 50.765625 202.488281 51.027344 202.488281 51.347656 Z M 190.839844 8.609375 C 190.839844 8.933594 190.578125 9.195312 190.253906 9.195312 L 186.585938 9.195312 C 186.261719 9.195312 186 8.933594 186 8.609375 L 186 2.605469 C 186 2.28125 186.261719 2.023438 186.582031 2.023438 L 190.253906 2.023438 C 190.574219 2.023438 190.839844 2.28125 190.839844 2.605469 Z M 190.839844 57.355469 C 190.839844 57.675781 190.574219 57.9375 190.253906 57.9375 L 186.582031 57.9375 C 186.261719 57.9375 186 57.675781 186 57.355469 L 186 51.347656 C 186 51.027344 186.261719 50.765625 186.585938 50.765625 L 190.253906 50.765625 C 190.578125 50.765625 190.839844 51.027344 190.839844 51.347656 Z M 179.1875 57.355469 C 179.183594 57.675781 178.929688 57.9375 178.605469 57.9375 L 174.929688 57.9375 C 174.613281 57.9375 174.351562 57.675781 174.347656 57.355469 L 174.347656 51.347656 C 174.347656 51.027344 174.609375 50.765625 174.929688 50.765625 L 178.605469 50.765625 C 178.929688 50.765625 179.1875 51.027344 179.1875 51.347656 Z M 167.539062 57.355469 C 167.539062 57.675781 167.273438 57.9375 166.953125 57.9375 L 163.28125 57.9375 C 162.960938 57.9375 162.699219 57.675781 162.699219 57.355469 L 162.699219 51.347656 C 162.699219 51.027344 162.957031 50.765625 163.28125 50.765625 L 166.957031 50.765625 C 167.273438 50.765625 167.539062 51.027344 167.535156 51.347656 Z M 155.886719 57.355469 C 155.886719 57.675781 155.621094 57.9375 155.300781 57.9375 L 151.628906 57.9375 C 151.308594 57.9375 151.046875 57.675781 151.046875 57.355469 L 151.046875 51.347656 C 151.046875 51.027344 151.308594 50.765625 151.632812 50.765625 L 155.304688 50.765625 C 155.625 50.765625 155.886719 51.027344 155.886719 51.347656 Z M 144.238281 57.355469 C 144.238281 57.675781 143.976562 57.9375 143.652344 57.9375 L 139.980469 57.9375 C 139.660156 57.9375 139.398438 57.675781 139.394531 57.355469 L 139.394531 51.347656 C 139.394531 51.027344 139.660156 50.765625 139.980469 50.765625 L 143.652344 50.765625 C 143.976562 50.765625 144.238281 51.027344 144.238281 51.347656 Z M 136.925781 45.847656 C 136.925781 47.269531 135.773438 48.421875 134.351562 48.421875 L 89.050781 48.421875 C 87.628906 48.421875 86.476562 47.269531 86.480469 45.847656 L 86.480469 14.113281 C 86.476562 12.695312 87.632812 11.539062 89.050781 11.539062 L 134.351562 11.539062 C 135.773438 11.539062 136.925781 12.695312 136.925781 14.113281 Z M 132.585938 57.355469 C 132.585938 57.675781 132.324219 57.9375 132.003906 57.941406 L 128.328125 57.9375 C 128.011719 57.9375 127.746094 57.675781 127.746094 57.355469 L 127.746094 51.347656 C 127.746094 51.03125 128.007812 50.765625 128.328125 50.765625 L 132.003906 50.765625 C 132.324219 50.765625 132.585938 51.027344 132.585938 51.347656 Z M 120.933594 57.355469 C 120.933594 57.675781 120.671875 57.9375 120.351562 57.941406 L 116.679688 57.9375 C 116.355469 57.9375 116.097656 57.675781 116.097656 57.351562 L 116.097656 51.347656 C 116.097656 51.03125 116.355469 50.765625 116.679688 50.765625 L 120.355469 50.765625 C 120.671875 50.765625 120.933594 51.027344 120.933594 51.347656 Z M 109.285156 57.355469 C 109.285156 57.675781 109.023438 57.9375 108.699219 57.941406 L 105.027344 57.9375 C 104.707031 57.9375 104.445312 57.675781 104.445312 57.355469 L 104.445312 51.347656 C 104.445312 51.027344 104.707031 50.765625 105.03125 50.765625 L 108.699219 50.765625 C 109.023438 50.765625 109.285156 51.027344 109.285156 51.347656 Z M 97.632812 57.355469 C 97.636719 57.675781 97.375 57.9375 97.050781 57.941406 L 93.378906 57.9375 C 93.058594 57.9375 92.792969 57.675781 92.792969 57.355469 L 92.792969 51.347656 C 92.792969 51.027344 93.058594 50.765625 93.378906 50.765625 L 97.050781 50.765625 C 97.371094 50.765625 97.636719 51.03125 97.636719 51.347656 Z M 85.984375 8.609375 C 85.980469 8.933594 85.722656 9.195312 85.402344 9.195312 L 81.726562 9.195312 C 81.410156 9.195312 81.144531 8.933594 81.144531 8.609375 L 81.144531 2.605469 C 81.144531 2.28125 81.40625 2.023438 81.726562 2.023438 L 85.402344 2.023438 C 85.722656 2.023438 85.984375 2.28125 85.980469 2.605469 Z M 85.980469 57.355469 C 85.984375 57.675781 85.722656 57.9375 85.402344 57.941406 L 81.726562 57.9375 C 81.40625 57.9375 81.144531 57.675781 81.144531 57.351562 L 81.144531 51.347656 C 81.144531 51.027344 81.410156 50.765625 81.726562 50.765625 L 85.402344 50.765625 C 85.722656 50.765625 85.984375 51.027344 85.984375 51.347656 Z M 35.636719 48.421875 C 34.214844 48.421875 33.0625 47.269531 33.066406 45.847656 L 33.0625 14.113281 C 33.0625 12.691406 34.21875 11.539062 35.636719 11.539062 L 80.9375 11.539062 C 82.355469 11.539062 83.511719 12.695312 83.511719 14.113281 L 83.511719 45.847656 C 83.511719 47.269531 82.359375 48.421875 80.9375 48.421875 Z M 74.332031 57.355469 C 74.332031 57.675781 74.070312 57.9375 73.753906 57.9375 L 70.074219 57.9375 C 69.753906 57.9375 69.496094 57.675781 69.496094 57.351562 L 69.496094 51.347656 C 69.496094 51.027344 69.753906 50.765625 70.078125 50.765625 L 73.753906 50.765625 C 74.070312 50.765625 74.332031 51.03125 74.332031 51.347656 Z M 62.683594 57.355469 C 62.683594 57.675781 62.421875 57.9375 62.097656 57.9375 L 58.425781 57.941406 C 58.105469 57.9375 57.84375 57.675781 57.84375 57.351562 L 57.839844 51.347656 C 57.839844 51.027344 58.105469 50.765625 58.425781 50.765625 L 62.097656 50.765625 C 62.421875 50.765625 62.683594 51.03125 62.683594 51.347656 Z M 51.035156 57.355469 C 51.035156 57.675781 50.769531 57.9375 50.449219 57.941406 L 46.777344 57.9375 C 46.457031 57.9375 46.191406 57.675781 46.191406 57.351562 L 46.191406 51.347656 C 46.191406 51.03125 46.457031 50.765625 46.777344 50.765625 L 50.449219 50.765625 C 50.769531 50.765625 51.035156 51.03125 51.035156 51.347656 Z M 39.378906 57.355469 C 39.378906 57.675781 39.121094 57.9375 38.800781 57.9375 L 35.121094 57.941406 C 34.804688 57.9375 34.542969 57.675781 34.542969 57.351562 L 34.542969 51.347656 C 34.542969 51.027344 34.804688 50.765625 35.125 50.765625 L 38.800781 50.765625 C 39.121094 50.765625 39.378906 51.03125 39.378906 51.347656 Z M 34.542969 2.605469 C 34.542969 2.28125 34.804688 2.023438 35.125 2.023438 L 38.800781 2.023438 C 39.121094 2.023438 39.378906 2.28125 39.382812 2.601562 L 39.378906 8.609375 C 39.378906 8.933594 39.121094 9.195312 38.800781 9.195312 L 35.125 9.195312 C 34.804688 9.195312 34.542969 8.933594 34.542969 8.609375 Z M 46.191406 2.601562 C 46.191406 2.28125 46.457031 2.023438 46.777344 2.023438 L 50.449219 2.023438 C 50.769531 2.023438 51.035156 2.28125 51.035156 2.601562 L 51.035156 8.609375 C 51.035156 8.933594 50.769531 9.195312 50.449219 9.195312 L 46.777344 9.195312 C 46.457031 9.195312 46.191406 8.933594 46.191406 8.609375 Z M 57.84375 2.601562 C 57.84375 2.28125 58.105469 2.023438 58.425781 2.023438 L 62.097656 2.023438 C 62.421875 2.023438 62.683594 2.28125 62.683594 2.601562 L 62.683594 8.609375 C 62.683594 8.933594 62.421875 9.195312 62.097656 9.195312 L 58.425781 9.195312 C 58.105469 9.195312 57.84375 8.933594 57.84375 8.609375 Z M 69.496094 2.605469 C 69.496094 2.28125 69.753906 2.023438 70.074219 2.023438 L 73.753906 2.023438 C 74.070312 2.023438 74.332031 2.28125 74.332031 2.601562 L 74.332031 8.609375 C 74.332031 8.933594 74.070312 9.195312 73.753906 9.195312 L 70.078125 9.195312 C 69.753906 9.195312 69.496094 8.933594 69.496094 8.609375 Z M 92.792969 2.601562 C 92.792969 2.28125 93.058594 2.023438 93.378906 2.023438 L 97.050781 2.023438 C 97.375 2.023438 97.636719 2.28125 97.636719 2.601562 L 97.636719 8.609375 C 97.636719 8.933594 97.371094 9.195312 97.050781 9.195312 L 93.378906 9.195312 C 93.058594 9.195312 92.796875 8.933594 92.792969 8.609375 Z M 104.445312 2.601562 C 104.445312 2.28125 104.707031 2.023438 105.027344 2.023438 L 108.699219 2.023438 C 109.023438 2.023438 109.285156 2.28125 109.285156 2.605469 L 109.285156 8.609375 C 109.285156 8.933594 109.023438 9.195312 108.699219 9.195312 L 105.027344 9.195312 C 104.707031 9.195312 104.441406 8.933594 104.445312 8.609375 Z M 116.097656 2.605469 C 116.097656 2.28125 116.355469 2.023438 116.679688 2.023438 L 120.351562 2.023438 C 120.671875 2.023438 120.933594 2.28125 120.933594 2.605469 L 120.933594 8.609375 C 120.933594 8.933594 120.671875 9.195312 120.355469 9.195312 L 116.679688 9.195312 C 116.355469 9.195312 116.097656 8.933594 116.097656 8.609375 Z M 127.746094 2.601562 C 127.746094 2.28125 128.011719 2.023438 128.328125 2.023438 L 132.003906 2.023438 C 132.324219 2.023438 132.585938 2.28125 132.585938 2.605469 L 132.585938 8.609375 C 132.585938 8.933594 132.324219 9.195312 132.003906 9.195312 L 128.328125 9.195312 C 128.011719 9.195312 127.746094 8.933594 127.746094 8.609375 Z M 139.398438 2.601562 C 139.398438 2.28125 139.660156 2.023438 139.980469 2.023438 L 143.652344 2.023438 C 143.976562 2.023438 144.238281 2.28125 144.238281 2.601562 L 144.238281 8.609375 C 144.238281 8.933594 143.976562 9.195312 143.652344 9.195312 L 139.980469 9.195312 C 139.660156 9.199219 139.394531 8.933594 139.398438 8.609375 Z M 151.046875 2.605469 C 151.046875 2.28125 151.308594 2.023438 151.632812 2.023438 L 155.300781 2.023438 C 155.625 2.023438 155.886719 2.28125 155.886719 2.605469 L 155.886719 8.609375 C 155.886719 8.933594 155.625 9.195312 155.300781 9.195312 L 151.632812 9.195312 C 151.308594 9.195312 151.046875 8.933594 151.046875 8.609375 Z M 162.699219 2.601562 C 162.699219 2.28125 162.960938 2.023438 163.28125 2.023438 L 166.957031 2.023438 C 167.273438 2.023438 167.539062 2.28125 167.535156 2.605469 L 167.535156 8.613281 C 167.535156 8.933594 167.273438 9.195312 166.957031 9.195312 L 163.28125 9.195312 C 162.957031 9.195312 162.699219 8.933594 162.699219 8.609375 Z M 187.765625 11.539062 C 189.1875 11.539062 190.339844 12.691406 190.339844 14.113281 L 190.339844 45.847656 C 190.339844 47.269531 189.1875 48.421875 187.765625 48.421875 L 142.464844 48.421875 C 141.046875 48.421875 139.894531 47.269531 139.894531 45.847656 L 139.894531 14.113281 C 139.894531 12.695312 141.046875 11.539062 142.464844 11.539062 Z M 174.347656 2.605469 C 174.347656 2.28125 174.613281 2.023438 174.929688 2.023438 L 178.605469 2.023438 C 178.925781 2.023438 179.183594 2.28125 179.1875 2.605469 L 179.183594 8.613281 C 179.1875 8.933594 178.929688 9.195312 178.605469 9.195312 L 174.929688 9.195312 C 174.613281 9.195312 174.347656 8.933594 174.351562 8.609375 Z M 197.648438 2.605469 C 197.648438 2.28125 197.914062 2.023438 198.234375 2.023438 L 201.90625 2.023438 C 202.226562 2.023438 202.488281 2.28125 202.488281 2.605469 L 202.488281 8.609375 C 202.488281 8.933594 202.226562 9.195312 201.902344 9.195312 L 198.234375 9.195312 C 197.910156 9.195312 197.648438 8.933594 197.648438 8.609375 Z M 209.300781 2.605469 C 209.300781 2.28125 209.558594 2.023438 209.882812 2.023438 L 213.558594 2.023438 C 213.875 2.023438 214.136719 2.28125 214.140625 2.605469 L 214.136719 8.609375 C 214.140625 8.933594 213.875 9.195312 213.558594 9.195312 L 209.882812 9.195312 C 209.5625 9.195312 209.300781 8.933594 209.304688 8.609375 Z M 220.953125 2.605469 C 220.953125 2.28125 221.214844 2.023438 221.53125 2.023438 L 225.207031 2.023438 C 225.527344 2.023438 225.789062 2.28125 225.789062 2.601562 L 225.789062 8.609375 C 225.789062 8.933594 225.53125 9.195312 225.207031 9.195312 L 221.53125 9.195312 C 221.214844 9.195312 220.953125 8.933594 220.953125 8.609375 Z M 232.601562 2.605469 C 232.601562 2.28125 232.863281 2.023438 233.1875 2.023438 L 236.855469 2.023438 C 237.179688 2.023438 237.441406 2.28125 237.441406 2.605469 L 237.441406 8.609375 C 237.441406 8.933594 237.179688 9.195312 236.855469 9.195312 L 233.183594 9.195312 C 232.863281 9.195312 232.601562 8.933594 232.597656 8.609375 Z M 244.25 2.605469 C 244.25 2.28125 244.511719 2.023438 244.835938 2.023438 L 248.507812 2.023438 C 248.828125 2.023438 249.089844 2.28125 249.09375 2.605469 L 249.089844 8.613281 C 249.09375 8.933594 248.828125 9.195312 248.503906 9.195312 L 244.832031 9.195312 C 244.511719 9.195312 244.25 8.933594 244.25 8.609375 Z M 255.902344 2.605469 C 255.902344 2.28125 256.160156 2.023438 256.484375 2.023438 L 260.160156 2.023438 C 260.476562 2.023438 260.738281 2.28125 260.742188 2.601562 L 260.742188 8.609375 C 260.742188 8.933594 260.476562 9.195312 260.160156 9.195312 L 256.484375 9.195312 C 256.164062 9.195312 255.902344 8.933594 255.902344 8.609375 Z M 267.554688 2.605469 C 267.554688 2.28125 267.816406 2.023438 268.136719 2.023438 L 271.808594 2.023438 C 272.132812 2.023438 272.390625 2.28125 272.390625 2.601562 L 272.390625 8.609375 C 272.390625 8.933594 272.132812 9.195312 271.808594 9.195312 L 268.132812 9.195312 C 267.816406 9.195312 267.554688 8.933594 267.554688 8.609375 Z M 279.203125 2.605469 C 279.203125 2.28125 279.464844 2.023438 279.789062 2.023438 L 283.460938 2.023438 C 283.78125 2.023438 284.042969 2.28125 284.042969 2.601562 L 284.042969 8.609375 C 284.042969 8.933594 283.78125 9.195312 283.457031 9.195312 L 279.785156 9.195312 C 279.464844 9.195312 279.203125 8.933594 279.203125 8.609375 Z M 290.851562 2.601562 C 290.851562 2.28125 291.113281 2.023438 291.4375 2.023438 L 295.109375 2.023438 C 295.429688 2.023438 295.691406 2.28125 295.691406 2.601562 L 295.691406 8.609375 C 295.691406 8.933594 295.429688 9.195312 295.109375 9.195312 L 291.4375 9.195312 C 291.117188 9.195312 290.851562 8.933594 290.851562 8.609375 Z M 31.050781 -0.328125 L 31.050781 60.292969 L 299.183594 60.292969 L 299.183594 -0.328125 L 31.050781 -0.328125 " fill-opacity="1" fill-rule="nonzero"/></g></g></g></g></g></g><g mask="url(#eec743b2c0)"><g transform="matrix(1, 0, 0, 1, 498, -0.000000000000001479)"><g clip-path="url(#1b0c425ec1)"><g clip-path="url(#b5ba16df96)"><g clip-path="url(#7b084220b8)"><g clip-path="url(#664fc87d9c)"><path fill="#fa5300" d="M 297.265625 45.847656 C 297.265625 47.269531 296.113281 48.421875 294.691406 48.421875 L 249.390625 48.421875 C 247.972656 48.421875 246.816406 47.269531 246.816406 45.847656 L 246.816406 14.113281 C 246.816406 12.695312 247.972656 11.539062 249.390625 11.539062 L 294.691406 11.539062 C 296.113281 11.539062 297.265625 12.691406 297.265625 14.113281 Z M 295.792969 57.355469 C 295.789062 57.675781 295.527344 57.9375 295.207031 57.9375 L 291.535156 57.9375 C 291.210938 57.9375 290.949219 57.675781 290.949219 57.355469 L 290.949219 51.347656 C 290.949219 51.027344 291.210938 50.765625 291.53125 50.765625 L 295.203125 50.765625 C 295.523438 50.765625 295.789062 51.03125 295.789062 51.347656 Z M 284.140625 57.355469 C 284.140625 57.675781 283.875 57.9375 283.554688 57.9375 L 279.882812 57.9375 C 279.558594 57.9375 279.296875 57.675781 279.300781 57.355469 L 279.300781 51.347656 C 279.300781 51.027344 279.5625 50.765625 279.882812 50.765625 L 283.554688 50.765625 C 283.878906 50.765625 284.140625 51.027344 284.140625 51.347656 Z M 272.484375 57.351562 C 272.484375 57.675781 272.226562 57.9375 271.90625 57.9375 L 268.230469 57.9375 C 267.910156 57.9375 267.648438 57.675781 267.648438 57.355469 L 267.648438 51.347656 C 267.648438 51.027344 267.910156 50.765625 268.230469 50.765625 L 271.90625 50.765625 C 272.230469 50.765625 272.484375 51.03125 272.484375 51.347656 Z M 260.839844 57.355469 C 260.835938 57.675781 260.574219 57.9375 260.257812 57.9375 L 256.582031 57.9375 C 256.257812 57.9375 256 57.675781 256 57.355469 L 256 51.347656 C 256 51.027344 256.257812 50.765625 256.578125 50.765625 L 260.253906 50.765625 C 260.574219 50.765625 260.839844 51.027344 260.835938 51.347656 Z M 249.1875 57.355469 C 249.1875 57.675781 248.925781 57.9375 248.601562 57.9375 L 244.933594 57.9375 C 244.609375 57.9375 244.347656 57.675781 244.347656 57.355469 L 244.347656 51.347656 C 244.347656 51.027344 244.609375 50.765625 244.929688 50.765625 L 248.601562 50.765625 C 248.925781 50.765625 249.1875 51.027344 249.1875 51.347656 Z M 243.847656 45.847656 C 243.851562 47.269531 242.695312 48.421875 241.277344 48.421875 L 195.976562 48.421875 C 194.558594 48.421875 193.402344 47.269531 193.402344 45.847656 L 193.402344 14.113281 C 193.402344 12.695312 194.558594 11.539062 195.976562 11.539062 L 241.277344 11.539062 C 242.695312 11.539062 243.851562 12.691406 243.847656 14.113281 Z M 237.539062 57.355469 C 237.539062 57.675781 237.273438 57.9375 236.953125 57.9375 L 233.28125 57.9375 C 232.960938 57.9375 232.695312 57.675781 232.695312 57.355469 L 232.695312 51.347656 C 232.695312 51.027344 232.960938 50.765625 233.28125 50.765625 L 236.953125 50.765625 C 237.277344 50.765625 237.539062 51.027344 237.539062 51.347656 Z M 225.886719 57.355469 C 225.882812 57.675781 225.625 57.9375 225.304688 57.9375 L 221.628906 57.9375 C 221.3125 57.9375 221.046875 57.675781 221.046875 57.355469 L 221.046875 51.347656 C 221.046875 51.027344 221.308594 50.765625 221.628906 50.765625 L 225.300781 50.765625 C 225.625 50.765625 225.886719 51.027344 225.882812 51.347656 Z M 214.234375 57.355469 C 214.234375 57.675781 213.972656 57.9375 213.652344 57.9375 L 209.980469 57.9375 C 209.65625 57.9375 209.398438 57.675781 209.398438 57.355469 L 209.398438 51.347656 C 209.398438 51.027344 209.65625 50.765625 209.976562 50.765625 L 213.65625 50.765625 C 213.972656 50.765625 214.234375 51.027344 214.234375 51.347656 Z M 202.585938 57.355469 C 202.585938 57.675781 202.320312 57.9375 202 57.9375 L 198.328125 57.9375 C 198.007812 57.9375 197.746094 57.675781 197.746094 57.355469 L 197.746094 51.347656 C 197.746094 51.027344 198.007812 50.765625 198.328125 50.765625 L 202 50.765625 C 202.324219 50.765625 202.585938 51.027344 202.585938 51.347656 Z M 190.933594 8.609375 C 190.933594 8.933594 190.671875 9.195312 190.351562 9.195312 L 186.679688 9.195312 C 186.355469 9.195312 186.09375 8.933594 186.09375 8.609375 L 186.09375 2.605469 C 186.09375 2.28125 186.359375 2.023438 186.679688 2.023438 L 190.351562 2.023438 C 190.671875 2.023438 190.9375 2.28125 190.933594 2.605469 Z M 190.9375 57.355469 C 190.9375 57.675781 190.671875 57.9375 190.351562 57.9375 L 186.679688 57.9375 C 186.359375 57.9375 186.09375 57.675781 186.09375 57.355469 L 186.09375 51.347656 C 186.09375 51.027344 186.355469 50.765625 186.679688 50.765625 L 190.351562 50.765625 C 190.671875 50.765625 190.933594 51.027344 190.933594 51.347656 Z M 179.28125 57.355469 C 179.28125 57.675781 179.023438 57.9375 178.699219 57.9375 L 175.027344 57.9375 C 174.707031 57.9375 174.445312 57.675781 174.445312 57.355469 L 174.445312 51.347656 C 174.445312 51.027344 174.707031 50.765625 175.023438 50.765625 L 178.703125 50.765625 C 179.023438 50.765625 179.28125 51.027344 179.28125 51.347656 Z M 167.632812 57.355469 C 167.632812 57.675781 167.367188 57.9375 167.050781 57.9375 L 163.375 57.9375 C 163.054688 57.9375 162.796875 57.675781 162.796875 57.355469 L 162.796875 51.347656 C 162.792969 51.027344 163.054688 50.765625 163.378906 50.765625 L 167.054688 50.765625 C 167.371094 50.765625 167.632812 51.027344 167.632812 51.347656 Z M 155.984375 57.355469 C 155.984375 57.675781 155.71875 57.9375 155.398438 57.9375 L 151.726562 57.9375 C 151.40625 57.9375 151.140625 57.675781 151.140625 57.355469 L 151.140625 51.347656 C 151.140625 51.027344 151.40625 50.765625 151.726562 50.765625 L 155.398438 50.765625 C 155.722656 50.765625 155.984375 51.027344 155.984375 51.347656 Z M 144.332031 57.355469 C 144.335938 57.675781 144.070312 57.9375 143.746094 57.9375 L 140.078125 57.9375 C 139.757812 57.9375 139.492188 57.675781 139.492188 57.355469 L 139.492188 51.347656 C 139.492188 51.027344 139.753906 50.765625 140.078125 50.765625 L 143.75 50.765625 C 144.070312 50.765625 144.332031 51.027344 144.332031 51.347656 Z M 137.019531 45.847656 C 137.023438 47.269531 135.867188 48.421875 134.449219 48.421875 L 89.148438 48.421875 C 87.726562 48.421875 86.574219 47.269531 86.574219 45.847656 L 86.574219 14.113281 C 86.574219 12.695312 87.726562 11.539062 89.148438 11.539062 L 134.449219 11.539062 C 135.867188 11.539062 137.019531 12.695312 137.019531 14.113281 Z M 132.679688 57.355469 C 132.679688 57.675781 132.421875 57.9375 132.097656 57.941406 L 128.421875 57.9375 C 128.105469 57.9375 127.84375 57.675781 127.84375 57.355469 L 127.84375 51.347656 C 127.84375 51.03125 128.105469 50.765625 128.425781 50.765625 L 132.101562 50.765625 C 132.421875 50.765625 132.679688 51.027344 132.679688 51.347656 Z M 121.03125 57.355469 C 121.03125 57.675781 120.769531 57.9375 120.449219 57.941406 L 116.773438 57.9375 C 116.453125 57.9375 116.195312 57.675781 116.195312 57.351562 L 116.195312 51.347656 C 116.195312 51.03125 116.453125 50.765625 116.773438 50.765625 L 120.449219 50.765625 C 120.769531 50.765625 121.03125 51.027344 121.03125 51.347656 Z M 109.378906 57.355469 C 109.382812 57.675781 109.117188 57.9375 108.796875 57.941406 L 105.125 57.9375 C 104.804688 57.9375 104.539062 57.675781 104.539062 57.355469 L 104.539062 51.347656 C 104.539062 51.027344 104.800781 50.765625 105.125 50.765625 L 108.796875 50.765625 C 109.117188 50.765625 109.382812 51.027344 109.382812 51.347656 Z M 97.730469 57.355469 C 97.730469 57.675781 97.46875 57.9375 97.148438 57.941406 L 93.476562 57.9375 C 93.152344 57.9375 92.890625 57.675781 92.890625 57.355469 L 92.890625 51.347656 C 92.890625 51.027344 93.152344 50.765625 93.476562 50.765625 L 97.148438 50.765625 C 97.46875 50.765625 97.730469 51.03125 97.730469 51.347656 Z M 86.078125 8.609375 C 86.078125 8.933594 85.820312 9.195312 85.496094 9.195312 L 81.820312 9.195312 C 81.503906 9.195312 81.242188 8.933594 81.242188 8.609375 L 81.242188 2.605469 C 81.242188 2.28125 81.503906 2.023438 81.820312 2.023438 L 85.496094 2.023438 C 85.820312 2.023438 86.078125 2.28125 86.078125 2.605469 Z M 86.078125 57.355469 C 86.078125 57.675781 85.820312 57.9375 85.496094 57.941406 L 81.820312 57.9375 C 81.503906 57.9375 81.242188 57.675781 81.242188 57.351562 L 81.242188 51.347656 C 81.242188 51.027344 81.503906 50.765625 81.824219 50.765625 L 85.496094 50.765625 C 85.820312 50.765625 86.078125 51.027344 86.078125 51.347656 Z M 35.734375 48.421875 C 34.3125 48.421875 33.160156 47.269531 33.160156 45.847656 L 33.160156 14.113281 C 33.160156 12.691406 34.3125 11.539062 35.734375 11.539062 L 81.035156 11.539062 C 82.453125 11.539062 83.605469 12.695312 83.605469 14.113281 L 83.605469 45.847656 C 83.605469 47.269531 82.453125 48.421875 81.035156 48.421875 Z M 74.429688 57.355469 C 74.429688 57.675781 74.167969 57.9375 73.847656 57.9375 L 70.171875 57.9375 C 69.851562 57.9375 69.589844 57.675781 69.59375 57.351562 L 69.589844 51.347656 C 69.59375 51.027344 69.847656 50.765625 70.171875 50.765625 L 73.847656 50.765625 C 74.164062 50.765625 74.429688 51.03125 74.429688 51.347656 Z M 62.777344 57.355469 C 62.78125 57.675781 62.515625 57.9375 62.195312 57.9375 L 58.523438 57.941406 C 58.199219 57.9375 57.9375 57.675781 57.9375 57.351562 L 57.9375 51.347656 C 57.9375 51.027344 58.203125 50.765625 58.523438 50.765625 L 62.195312 50.765625 C 62.515625 50.765625 62.777344 51.03125 62.777344 51.347656 Z M 51.128906 57.355469 C 51.128906 57.675781 50.867188 57.9375 50.542969 57.941406 L 46.875 57.9375 C 46.550781 57.9375 46.289062 57.675781 46.289062 57.351562 L 46.289062 51.347656 C 46.289062 51.03125 46.550781 50.765625 46.875 50.765625 L 50.546875 50.765625 C 50.867188 50.765625 51.128906 51.03125 51.128906 51.347656 Z M 39.476562 57.355469 C 39.476562 57.675781 39.21875 57.9375 38.894531 57.9375 L 35.21875 57.941406 C 34.902344 57.9375 34.640625 57.675781 34.640625 57.351562 L 34.636719 51.347656 C 34.640625 51.027344 34.902344 50.765625 35.21875 50.765625 L 38.894531 50.765625 C 39.21875 50.765625 39.476562 51.03125 39.476562 51.347656 Z M 34.640625 2.605469 C 34.636719 2.28125 34.902344 2.023438 35.21875 2.023438 L 38.894531 2.023438 C 39.21875 2.023438 39.476562 2.28125 39.476562 2.601562 L 39.476562 8.609375 C 39.476562 8.933594 39.21875 9.195312 38.894531 9.195312 L 35.21875 9.195312 C 34.902344 9.195312 34.640625 8.933594 34.640625 8.609375 Z M 46.289062 2.601562 C 46.289062 2.28125 46.550781 2.023438 46.875 2.023438 L 50.542969 2.023438 C 50.867188 2.023438 51.128906 2.28125 51.128906 2.601562 L 51.128906 8.609375 C 51.128906 8.933594 50.867188 9.195312 50.542969 9.195312 L 46.875 9.195312 C 46.550781 9.195312 46.289062 8.933594 46.289062 8.609375 Z M 57.9375 2.601562 C 57.9375 2.28125 58.199219 2.023438 58.523438 2.023438 L 62.195312 2.023438 C 62.515625 2.023438 62.777344 2.28125 62.78125 2.601562 L 62.78125 8.609375 C 62.777344 8.933594 62.515625 9.195312 62.195312 9.195312 L 58.523438 9.195312 C 58.203125 9.195312 57.9375 8.933594 57.9375 8.609375 Z M 69.59375 2.605469 C 69.589844 2.28125 69.851562 2.023438 70.171875 2.023438 L 73.847656 2.023438 C 74.167969 2.023438 74.429688 2.28125 74.429688 2.601562 L 74.429688 8.609375 C 74.429688 8.933594 74.164062 9.195312 73.847656 9.195312 L 70.171875 9.195312 C 69.847656 9.195312 69.59375 8.933594 69.589844 8.609375 Z M 92.890625 2.601562 C 92.890625 2.28125 93.152344 2.023438 93.476562 2.023438 L 97.148438 2.023438 C 97.46875 2.023438 97.730469 2.28125 97.734375 2.601562 L 97.730469 8.609375 C 97.730469 8.933594 97.46875 9.195312 97.148438 9.195312 L 93.476562 9.195312 C 93.152344 9.195312 92.890625 8.933594 92.890625 8.609375 Z M 104.539062 2.601562 C 104.539062 2.28125 104.804688 2.023438 105.125 2.023438 L 108.796875 2.023438 C 109.117188 2.023438 109.382812 2.28125 109.382812 2.605469 L 109.382812 8.609375 C 109.382812 8.933594 109.117188 9.195312 108.796875 9.195312 L 105.125 9.195312 C 104.800781 9.195312 104.539062 8.933594 104.539062 8.609375 Z M 116.195312 2.605469 C 116.195312 2.28125 116.453125 2.023438 116.773438 2.023438 L 120.449219 2.023438 C 120.765625 2.023438 121.03125 2.28125 121.03125 2.605469 L 121.03125 8.609375 C 121.03125 8.933594 120.769531 9.195312 120.449219 9.195312 L 116.773438 9.195312 C 116.453125 9.195312 116.195312 8.933594 116.195312 8.609375 Z M 127.84375 2.601562 C 127.84375 2.28125 128.105469 2.023438 128.421875 2.023438 L 132.097656 2.023438 C 132.421875 2.023438 132.679688 2.28125 132.679688 2.605469 L 132.679688 8.609375 C 132.679688 8.933594 132.421875 9.195312 132.101562 9.195312 L 128.425781 9.195312 C 128.105469 9.195312 127.84375 8.933594 127.84375 8.609375 Z M 139.492188 2.601562 C 139.492188 2.28125 139.753906 2.023438 140.078125 2.023438 L 143.75 2.023438 C 144.070312 2.023438 144.335938 2.28125 144.335938 2.601562 L 144.335938 8.609375 C 144.332031 8.933594 144.070312 9.195312 143.75 9.195312 L 140.078125 9.195312 C 139.753906 9.199219 139.492188 8.933594 139.492188 8.609375 Z M 151.140625 2.605469 C 151.140625 2.28125 151.40625 2.023438 151.726562 2.023438 L 155.398438 2.023438 C 155.71875 2.023438 155.984375 2.28125 155.984375 2.605469 L 155.984375 8.609375 C 155.984375 8.933594 155.722656 9.195312 155.398438 9.195312 L 151.726562 9.195312 C 151.40625 9.195312 151.140625 8.933594 151.144531 8.609375 Z M 162.796875 2.601562 C 162.796875 2.28125 163.054688 2.023438 163.375 2.023438 L 167.050781 2.023438 C 167.371094 2.023438 167.632812 2.28125 167.632812 2.605469 L 167.632812 8.613281 C 167.632812 8.933594 167.371094 9.195312 167.050781 9.195312 L 163.378906 9.195312 C 163.054688 9.195312 162.796875 8.933594 162.796875 8.609375 Z M 187.863281 11.539062 C 189.28125 11.539062 190.4375 12.691406 190.433594 14.113281 L 190.433594 45.847656 C 190.433594 47.269531 189.28125 48.421875 187.863281 48.421875 L 142.5625 48.421875 C 141.144531 48.421875 139.988281 47.269531 139.988281 45.847656 L 139.988281 14.113281 C 139.988281 12.695312 141.140625 11.539062 142.5625 11.539062 Z M 174.445312 2.605469 C 174.445312 2.28125 174.707031 2.023438 175.027344 2.023438 L 178.699219 2.023438 C 179.023438 2.023438 179.28125 2.28125 179.28125 2.605469 L 179.28125 8.613281 C 179.28125 8.933594 179.023438 9.195312 178.703125 9.195312 L 175.027344 9.195312 C 174.707031 9.195312 174.445312 8.933594 174.445312 8.609375 Z M 197.746094 2.605469 C 197.746094 2.28125 198.007812 2.023438 198.328125 2.023438 L 202 2.023438 C 202.320312 2.023438 202.585938 2.28125 202.585938 2.605469 L 202.585938 8.609375 C 202.585938 8.933594 202.324219 9.195312 202 9.195312 L 198.328125 9.195312 C 198.007812 9.195312 197.746094 8.933594 197.746094 8.609375 Z M 209.398438 2.605469 C 209.398438 2.28125 209.65625 2.023438 209.980469 2.023438 L 213.652344 2.023438 C 213.972656 2.023438 214.234375 2.28125 214.234375 2.605469 L 214.234375 8.609375 C 214.234375 8.933594 213.972656 9.195312 213.65625 9.195312 L 209.976562 9.195312 C 209.65625 9.195312 209.398438 8.933594 209.398438 8.609375 Z M 221.046875 2.605469 C 221.046875 2.28125 221.3125 2.023438 221.628906 2.023438 L 225.304688 2.023438 C 225.625 2.023438 225.882812 2.28125 225.882812 2.601562 L 225.882812 8.609375 C 225.886719 8.933594 225.625 9.195312 225.304688 9.195312 L 221.628906 9.195312 C 221.308594 9.195312 221.046875 8.933594 221.046875 8.609375 Z M 232.695312 2.605469 C 232.695312 2.28125 232.960938 2.023438 233.28125 2.023438 L 236.953125 2.023438 C 237.273438 2.023438 237.539062 2.28125 237.539062 2.605469 L 237.535156 8.609375 C 237.539062 8.933594 237.277344 9.195312 236.953125 9.195312 L 233.28125 9.195312 C 232.960938 9.195312 232.695312 8.933594 232.695312 8.609375 Z M 244.347656 2.605469 C 244.347656 2.28125 244.609375 2.023438 244.933594 2.023438 L 248.601562 2.023438 C 248.925781 2.023438 249.1875 2.28125 249.1875 2.605469 L 249.1875 8.613281 C 249.1875 8.933594 248.925781 9.195312 248.601562 9.195312 L 244.929688 9.195312 C 244.609375 9.195312 244.347656 8.933594 244.34375 8.609375 Z M 256 2.605469 C 256 2.28125 256.257812 2.023438 256.582031 2.023438 L 260.257812 2.023438 C 260.574219 2.023438 260.835938 2.28125 260.835938 2.601562 L 260.835938 8.609375 C 260.839844 8.933594 260.574219 9.195312 260.257812 9.195312 L 256.578125 9.195312 C 256.257812 9.195312 256 8.933594 256 8.609375 Z M 267.648438 2.605469 C 267.648438 2.28125 267.910156 2.023438 268.230469 2.023438 L 271.90625 2.023438 C 272.226562 2.023438 272.484375 2.28125 272.484375 2.601562 L 272.484375 8.609375 C 272.484375 8.933594 272.230469 9.195312 271.90625 9.195312 L 268.230469 9.195312 C 267.910156 9.195312 267.648438 8.933594 267.648438 8.609375 Z M 279.300781 2.605469 C 279.296875 2.28125 279.558594 2.023438 279.882812 2.023438 L 283.554688 2.023438 C 283.875 2.023438 284.140625 2.28125 284.140625 2.601562 L 284.140625 8.609375 C 284.140625 8.933594 283.878906 9.195312 283.554688 9.195312 L 279.882812 9.195312 C 279.5625 9.195312 279.300781 8.933594 279.296875 8.609375 Z M 290.949219 2.601562 C 290.949219 2.28125 291.210938 2.023438 291.535156 2.023438 L 295.207031 2.023438 C 295.527344 2.023438 295.789062 2.28125 295.789062 2.601562 L 295.789062 8.609375 C 295.789062 8.933594 295.527344 9.195312 295.203125 9.195312 L 291.53125 9.195312 C 291.210938 9.195312 290.949219 8.933594 290.949219 8.609375 Z M 31.144531 -0.328125 L 31.144531 60.292969 L 299.277344 60.292969 L 299.277344 -0.328125 L 31.144531 -0.328125 " fill-opacity="1" fill-rule="nonzero"/></g></g></g></g></g></g><g mask="url(#fdf5004205)"><g transform="matrix(1, 0, 0, 1, 763, -0.000000000000001479)"><g clip-path="url(#c3ccef5a07)"><g clip-path="url(#40844f0116)"><g clip-path="url(#00e31d75f1)"><g clip-path="url(#ecbe9bd9b4)"><path fill="#fa5300" d="M 297.359375 45.847656 C 297.359375 47.269531 296.207031 48.421875 294.785156 48.421875 L 249.488281 48.421875 C 248.066406 48.421875 246.914062 47.269531 246.914062 45.847656 L 246.914062 14.113281 C 246.914062 12.695312 248.066406 11.539062 249.488281 11.539062 L 294.785156 11.539062 C 296.207031 11.539062 297.359375 12.691406 297.359375 14.113281 Z M 295.886719 57.355469 C 295.886719 57.675781 295.621094 57.9375 295.300781 57.9375 L 291.628906 57.9375 C 291.304688 57.9375 291.042969 57.675781 291.046875 57.355469 L 291.042969 51.347656 C 291.046875 51.027344 291.308594 50.765625 291.628906 50.765625 L 295.300781 50.765625 C 295.621094 50.765625 295.882812 51.03125 295.886719 51.347656 Z M 284.238281 57.355469 C 284.234375 57.675781 283.972656 57.9375 283.652344 57.9375 L 279.980469 57.9375 C 279.65625 57.9375 279.394531 57.675781 279.394531 57.355469 L 279.394531 51.347656 C 279.394531 51.027344 279.660156 50.765625 279.980469 50.765625 L 283.648438 50.765625 C 283.972656 50.765625 284.238281 51.027344 284.238281 51.347656 Z M 272.582031 57.351562 C 272.582031 57.675781 272.324219 57.9375 272.003906 57.9375 L 268.328125 57.9375 C 268.007812 57.9375 267.746094 57.675781 267.746094 57.355469 L 267.746094 51.347656 C 267.746094 51.027344 268.007812 50.765625 268.324219 50.765625 L 272 50.765625 C 272.324219 50.765625 272.582031 51.03125 272.582031 51.347656 Z M 260.933594 57.355469 C 260.933594 57.675781 260.671875 57.9375 260.351562 57.9375 L 256.675781 57.9375 C 256.355469 57.9375 256.097656 57.675781 256.097656 57.355469 L 256.097656 51.347656 C 256.097656 51.027344 256.355469 50.765625 256.675781 50.765625 L 260.351562 50.765625 C 260.671875 50.765625 260.933594 51.027344 260.933594 51.347656 Z M 249.285156 57.355469 C 249.285156 57.675781 249.019531 57.9375 248.699219 57.9375 L 245.027344 57.9375 C 244.703125 57.9375 244.441406 57.675781 244.441406 57.355469 L 244.441406 51.347656 C 244.441406 51.027344 244.707031 50.765625 245.027344 50.765625 L 248.699219 50.765625 C 249.023438 50.765625 249.285156 51.027344 249.285156 51.347656 Z M 243.945312 45.847656 C 243.945312 47.269531 242.792969 48.421875 241.371094 48.421875 L 196.074219 48.421875 C 194.652344 48.421875 193.5 47.269531 193.5 45.847656 L 193.5 14.113281 C 193.5 12.695312 194.652344 11.539062 196.074219 11.539062 L 241.371094 11.539062 C 242.792969 11.539062 243.945312 12.691406 243.945312 14.113281 Z M 237.632812 57.355469 C 237.632812 57.675781 237.371094 57.9375 237.050781 57.9375 L 233.378906 57.9375 C 233.058594 57.9375 232.792969 57.675781 232.792969 57.355469 L 232.792969 51.347656 C 232.792969 51.027344 233.054688 50.765625 233.375 50.765625 L 237.046875 50.765625 C 237.371094 50.765625 237.632812 51.027344 237.636719 51.347656 Z M 225.980469 57.355469 C 225.980469 57.675781 225.71875 57.9375 225.398438 57.9375 L 221.726562 57.9375 C 221.40625 57.9375 221.144531 57.675781 221.144531 57.355469 L 221.144531 51.347656 C 221.144531 51.027344 221.40625 50.765625 221.722656 50.765625 L 225.398438 50.765625 C 225.722656 50.765625 225.980469 51.027344 225.980469 51.347656 Z M 214.332031 57.355469 C 214.328125 57.675781 214.066406 57.9375 213.75 57.9375 L 210.074219 57.9375 C 209.753906 57.9375 209.496094 57.675781 209.492188 57.355469 L 209.492188 51.347656 C 209.492188 51.027344 209.753906 50.765625 210.074219 50.765625 L 213.75 50.765625 C 214.070312 50.765625 214.332031 51.027344 214.332031 51.347656 Z M 202.683594 57.355469 C 202.683594 57.675781 202.417969 57.9375 202.097656 57.9375 L 198.425781 57.9375 C 198.105469 57.9375 197.839844 57.675781 197.839844 57.355469 L 197.839844 51.347656 C 197.839844 51.027344 198.101562 50.765625 198.425781 50.765625 L 202.09375 50.765625 C 202.417969 50.765625 202.683594 51.027344 202.683594 51.347656 Z M 191.03125 8.609375 C 191.03125 8.933594 190.769531 9.195312 190.445312 9.195312 L 186.777344 9.195312 C 186.453125 9.195312 186.191406 8.933594 186.191406 8.609375 L 186.191406 2.605469 C 186.191406 2.28125 186.453125 2.023438 186.777344 2.023438 L 190.449219 2.023438 C 190.769531 2.023438 191.03125 2.28125 191.03125 2.605469 Z M 191.03125 57.355469 C 191.03125 57.675781 190.769531 57.9375 190.449219 57.9375 L 186.773438 57.9375 C 186.453125 57.9375 186.191406 57.675781 186.191406 57.355469 L 186.191406 51.347656 C 186.191406 51.027344 186.453125 50.765625 186.777344 50.765625 L 190.449219 50.765625 C 190.769531 50.765625 191.03125 51.027344 191.03125 51.347656 Z M 179.378906 57.355469 C 179.378906 57.675781 179.121094 57.9375 178.796875 57.9375 L 175.121094 57.9375 C 174.804688 57.9375 174.542969 57.675781 174.539062 57.355469 L 174.539062 51.347656 C 174.539062 51.027344 174.804688 50.765625 175.121094 50.765625 L 178.796875 50.765625 C 179.121094 50.765625 179.378906 51.027344 179.378906 51.347656 Z M 167.730469 57.355469 C 167.730469 57.675781 167.464844 57.9375 167.148438 57.9375 L 163.472656 57.9375 C 163.152344 57.9375 162.890625 57.675781 162.890625 57.355469 L 162.890625 51.347656 C 162.890625 51.027344 163.148438 50.765625 163.472656 50.765625 L 167.148438 50.765625 C 167.464844 50.765625 167.730469 51.027344 167.730469 51.347656 Z M 156.078125 57.355469 C 156.078125 57.675781 155.816406 57.9375 155.496094 57.9375 L 151.824219 57.9375 C 151.503906 57.9375 151.238281 57.675781 151.238281 57.355469 L 151.238281 51.347656 C 151.238281 51.027344 151.5 50.765625 151.824219 50.765625 L 155.496094 50.765625 C 155.816406 50.765625 156.078125 51.027344 156.078125 51.347656 Z M 144.429688 57.355469 C 144.429688 57.675781 144.167969 57.9375 143.84375 57.9375 L 140.171875 57.9375 C 139.851562 57.9375 139.589844 57.675781 139.589844 57.355469 L 139.589844 51.347656 C 139.589844 51.027344 139.851562 50.765625 140.175781 50.765625 L 143.84375 50.765625 C 144.167969 50.765625 144.429688 51.027344 144.429688 51.347656 Z M 137.117188 45.847656 C 137.117188 47.269531 135.964844 48.421875 134.542969 48.421875 L 89.246094 48.421875 C 87.824219 48.421875 86.667969 47.269531 86.671875 45.847656 L 86.671875 14.113281 C 86.671875 12.695312 87.824219 11.539062 89.242188 11.539062 L 134.542969 11.539062 C 135.964844 11.539062 137.117188 12.695312 137.117188 14.113281 Z M 132.777344 57.355469 C 132.777344 57.675781 132.519531 57.9375 132.195312 57.941406 L 128.519531 57.9375 C 128.203125 57.9375 127.9375 57.675781 127.9375 57.355469 L 127.9375 51.347656 C 127.9375 51.03125 128.203125 50.765625 128.519531 50.765625 L 132.195312 50.765625 C 132.519531 50.765625 132.777344 51.027344 132.777344 51.347656 Z M 121.125 57.355469 C 121.128906 57.675781 120.863281 57.9375 120.546875 57.941406 L 116.871094 57.9375 C 116.550781 57.9375 116.289062 57.675781 116.289062 57.351562 L 116.289062 51.347656 C 116.289062 51.03125 116.546875 50.765625 116.871094 50.765625 L 120.546875 50.765625 C 120.863281 50.765625 121.128906 51.027344 121.128906 51.347656 Z M 109.476562 57.355469 C 109.476562 57.675781 109.214844 57.9375 108.890625 57.941406 L 105.21875 57.9375 C 104.898438 57.9375 104.636719 57.675781 104.636719 57.355469 L 104.636719 51.347656 C 104.636719 51.027344 104.898438 50.765625 105.222656 50.765625 L 108.894531 50.765625 C 109.214844 50.765625 109.476562 51.027344 109.476562 51.347656 Z M 97.828125 57.355469 C 97.828125 57.675781 97.566406 57.9375 97.242188 57.941406 L 93.570312 57.9375 C 93.25 57.9375 92.988281 57.675781 92.984375 57.355469 L 92.988281 51.347656 C 92.984375 51.027344 93.25 50.765625 93.570312 50.765625 L 97.242188 50.765625 C 97.566406 50.765625 97.828125 51.03125 97.828125 51.347656 Z M 86.175781 8.609375 C 86.175781 8.933594 85.914062 9.195312 85.59375 9.195312 L 81.917969 9.195312 C 81.601562 9.195312 81.339844 8.933594 81.335938 8.609375 L 81.339844 2.605469 C 81.335938 2.28125 81.601562 2.023438 81.917969 2.023438 L 85.59375 2.023438 C 85.917969 2.023438 86.175781 2.28125 86.175781 2.605469 Z M 86.171875 57.355469 C 86.175781 57.675781 85.914062 57.9375 85.59375 57.941406 L 81.917969 57.9375 C 81.601562 57.9375 81.335938 57.675781 81.339844 57.351562 L 81.335938 51.347656 C 81.335938 51.027344 81.601562 50.765625 81.917969 50.765625 L 85.59375 50.765625 C 85.914062 50.765625 86.175781 51.027344 86.175781 51.347656 Z M 35.828125 48.421875 C 34.40625 48.421875 33.253906 47.269531 33.257812 45.847656 L 33.257812 14.113281 C 33.257812 12.691406 34.410156 11.539062 35.828125 11.539062 L 81.128906 11.539062 C 82.550781 11.539062 83.703125 12.695312 83.703125 14.113281 L 83.703125 45.847656 C 83.703125 47.269531 82.550781 48.421875 81.128906 48.421875 Z M 74.523438 57.355469 C 74.523438 57.675781 74.261719 57.9375 73.945312 57.9375 L 70.269531 57.9375 C 69.945312 57.9375 69.6875 57.675781 69.6875 57.351562 L 69.6875 51.347656 C 69.6875 51.027344 69.945312 50.765625 70.269531 50.765625 L 73.945312 50.765625 C 74.261719 50.765625 74.523438 51.03125 74.523438 51.347656 Z M 62.875 57.355469 C 62.875 57.675781 62.613281 57.9375 62.289062 57.9375 L 58.617188 57.941406 C 58.296875 57.9375 58.035156 57.675781 58.035156 57.351562 L 58.035156 51.347656 C 58.035156 51.027344 58.296875 50.765625 58.621094 50.765625 L 62.289062 50.765625 C 62.613281 50.765625 62.875 51.03125 62.875 51.347656 Z M 51.226562 57.355469 C 51.226562 57.675781 50.964844 57.9375 50.640625 57.941406 L 46.972656 57.9375 C 46.648438 57.9375 46.386719 57.675781 46.386719 57.351562 L 46.382812 51.347656 C 46.382812 51.03125 46.648438 50.765625 46.96875 50.765625 L 50.640625 50.765625 C 50.960938 50.765625 51.226562 51.03125 51.226562 51.347656 Z M 39.570312 57.355469 C 39.574219 57.675781 39.3125 57.9375 38.992188 57.9375 L 35.316406 57.941406 C 34.996094 57.9375 34.734375 57.675781 34.734375 57.351562 L 34.734375 51.347656 C 34.738281 51.027344 35 50.765625 35.316406 50.765625 L 38.992188 50.765625 C 39.316406 50.765625 39.570312 51.03125 39.570312 51.347656 Z M 34.734375 2.605469 C 34.734375 2.28125 34.996094 2.023438 35.316406 2.023438 L 38.992188 2.023438 C 39.3125 2.023438 39.570312 2.28125 39.574219 2.601562 L 39.574219 8.609375 C 39.570312 8.933594 39.316406 9.195312 38.992188 9.195312 L 35.316406 9.195312 C 35 9.195312 34.734375 8.933594 34.734375 8.609375 Z M 46.386719 2.601562 C 46.382812 2.28125 46.648438 2.023438 46.972656 2.023438 L 50.640625 2.023438 C 50.964844 2.023438 51.226562 2.28125 51.226562 2.601562 L 51.226562 8.609375 C 51.226562 8.933594 50.960938 9.195312 50.640625 9.195312 L 46.96875 9.195312 C 46.648438 9.195312 46.386719 8.933594 46.386719 8.609375 Z M 58.035156 2.601562 C 58.035156 2.28125 58.296875 2.023438 58.617188 2.023438 L 62.289062 2.023438 C 62.613281 2.023438 62.875 2.28125 62.875 2.601562 L 62.875 8.609375 C 62.875 8.933594 62.613281 9.195312 62.289062 9.195312 L 58.621094 9.195312 C 58.296875 9.195312 58.035156 8.933594 58.035156 8.609375 Z M 69.6875 2.605469 C 69.6875 2.28125 69.945312 2.023438 70.265625 2.023438 L 73.945312 2.023438 C 74.261719 2.023438 74.523438 2.28125 74.527344 2.601562 L 74.523438 8.609375 C 74.523438 8.933594 74.261719 9.195312 73.945312 9.195312 L 70.269531 9.195312 C 69.945312 9.195312 69.6875 8.933594 69.6875 8.609375 Z M 92.988281 2.601562 C 92.988281 2.28125 93.25 2.023438 93.570312 2.023438 L 97.242188 2.023438 C 97.566406 2.023438 97.828125 2.28125 97.828125 2.601562 L 97.828125 8.609375 C 97.828125 8.933594 97.566406 9.195312 97.242188 9.195312 L 93.570312 9.195312 C 93.25 9.195312 92.988281 8.933594 92.988281 8.609375 Z M 104.636719 2.601562 C 104.636719 2.28125 104.898438 2.023438 105.222656 2.023438 L 108.890625 2.023438 C 109.214844 2.023438 109.476562 2.28125 109.476562 2.605469 L 109.476562 8.609375 C 109.476562 8.933594 109.214844 9.195312 108.894531 9.195312 L 105.222656 9.195312 C 104.898438 9.195312 104.636719 8.933594 104.636719 8.609375 Z M 116.289062 2.605469 C 116.289062 2.28125 116.546875 2.023438 116.871094 2.023438 L 120.546875 2.023438 C 120.863281 2.023438 121.128906 2.28125 121.125 2.605469 L 121.128906 8.609375 C 121.125 8.933594 120.863281 9.195312 120.546875 9.195312 L 116.871094 9.195312 C 116.546875 9.195312 116.292969 8.933594 116.289062 8.609375 Z M 127.941406 2.601562 C 127.9375 2.28125 128.203125 2.023438 128.519531 2.023438 L 132.195312 2.023438 C 132.519531 2.023438 132.777344 2.28125 132.777344 2.605469 L 132.777344 8.609375 C 132.777344 8.933594 132.515625 9.195312 132.195312 9.195312 L 128.519531 9.195312 C 128.203125 9.195312 127.9375 8.933594 127.9375 8.609375 Z M 139.589844 2.601562 C 139.589844 2.28125 139.851562 2.023438 140.171875 2.023438 L 143.84375 2.023438 C 144.167969 2.023438 144.429688 2.28125 144.429688 2.601562 L 144.429688 8.609375 C 144.429688 8.933594 144.167969 9.195312 143.84375 9.195312 L 140.171875 9.195312 C 139.851562 9.199219 139.585938 8.933594 139.589844 8.609375 Z M 151.238281 2.605469 C 151.238281 2.28125 151.5 2.023438 151.824219 2.023438 L 155.496094 2.023438 C 155.816406 2.023438 156.078125 2.28125 156.078125 2.605469 L 156.078125 8.609375 C 156.078125 8.933594 155.816406 9.195312 155.496094 9.195312 L 151.824219 9.195312 C 151.5 9.195312 151.238281 8.933594 151.238281 8.609375 Z M 162.894531 2.601562 C 162.890625 2.28125 163.152344 2.023438 163.472656 2.023438 L 167.148438 2.023438 C 167.464844 2.023438 167.730469 2.28125 167.730469 2.605469 L 167.726562 8.613281 C 167.730469 8.933594 167.464844 9.195312 167.148438 9.195312 L 163.472656 9.195312 C 163.148438 9.195312 162.890625 8.933594 162.890625 8.609375 Z M 187.957031 11.539062 C 189.378906 11.539062 190.53125 12.691406 190.53125 14.113281 L 190.53125 45.847656 C 190.53125 47.269531 189.378906 48.421875 187.957031 48.421875 L 142.660156 48.421875 C 141.238281 48.421875 140.085938 47.269531 140.085938 45.847656 L 140.085938 14.113281 C 140.085938 12.695312 141.238281 11.539062 142.660156 11.539062 Z M 174.539062 2.605469 C 174.542969 2.28125 174.804688 2.023438 175.121094 2.023438 L 178.796875 2.023438 C 179.121094 2.023438 179.378906 2.28125 179.378906 2.605469 L 179.378906 8.613281 C 179.378906 8.933594 179.121094 9.195312 178.796875 9.195312 L 175.125 9.195312 C 174.804688 9.195312 174.539062 8.933594 174.542969 8.609375 Z M 197.839844 2.605469 C 197.839844 2.28125 198.105469 2.023438 198.425781 2.023438 L 202.097656 2.023438 C 202.417969 2.023438 202.683594 2.28125 202.683594 2.605469 L 202.683594 8.609375 C 202.683594 8.933594 202.417969 9.195312 202.09375 9.195312 L 198.425781 9.195312 C 198.101562 9.195312 197.839844 8.933594 197.839844 8.609375 Z M 209.492188 2.605469 C 209.496094 2.28125 209.75 2.023438 210.074219 2.023438 L 213.75 2.023438 C 214.066406 2.023438 214.332031 2.28125 214.332031 2.605469 L 214.328125 8.609375 C 214.332031 8.933594 214.070312 9.195312 213.75 9.195312 L 210.074219 9.195312 C 209.753906 9.195312 209.492188 8.933594 209.496094 8.609375 Z M 221.144531 2.605469 C 221.144531 2.28125 221.40625 2.023438 221.726562 2.023438 L 225.398438 2.023438 C 225.71875 2.023438 225.980469 2.28125 225.980469 2.601562 L 225.980469 8.609375 C 225.980469 8.933594 225.722656 9.195312 225.398438 9.195312 L 221.722656 9.195312 C 221.40625 9.195312 221.144531 8.933594 221.144531 8.609375 Z M 232.792969 2.605469 C 232.792969 2.28125 233.058594 2.023438 233.378906 2.023438 L 237.050781 2.023438 C 237.371094 2.023438 237.636719 2.28125 237.636719 2.605469 L 237.632812 8.609375 C 237.632812 8.933594 237.371094 9.195312 237.046875 9.195312 L 233.375 9.195312 C 233.054688 9.195312 232.792969 8.933594 232.792969 8.609375 Z M 244.441406 2.605469 C 244.441406 2.28125 244.703125 2.023438 245.027344 2.023438 L 248.699219 2.023438 C 249.019531 2.023438 249.28125 2.28125 249.285156 2.605469 L 249.28125 8.613281 C 249.285156 8.933594 249.023438 9.195312 248.699219 9.195312 L 245.027344 9.195312 C 244.707031 9.195312 244.441406 8.933594 244.441406 8.609375 Z M 256.097656 2.605469 C 256.097656 2.28125 256.355469 2.023438 256.675781 2.023438 L 260.351562 2.023438 C 260.671875 2.023438 260.933594 2.28125 260.933594 2.601562 L 260.933594 8.609375 C 260.933594 8.933594 260.671875 9.195312 260.351562 9.195312 L 256.675781 9.195312 C 256.355469 9.195312 256.097656 8.933594 256.097656 8.609375 Z M 267.746094 2.605469 C 267.746094 2.28125 268.007812 2.023438 268.328125 2.023438 L 272.003906 2.023438 C 272.324219 2.023438 272.582031 2.28125 272.582031 2.601562 L 272.582031 8.609375 C 272.582031 8.933594 272.324219 9.195312 272 9.195312 L 268.324219 9.195312 C 268.007812 9.195312 267.746094 8.933594 267.746094 8.609375 Z M 279.394531 2.605469 C 279.394531 2.28125 279.65625 2.023438 279.980469 2.023438 L 283.652344 2.023438 C 283.972656 2.023438 284.234375 2.28125 284.234375 2.601562 L 284.234375 8.609375 C 284.238281 8.933594 283.972656 9.195312 283.648438 9.195312 L 279.980469 9.195312 C 279.660156 9.195312 279.394531 8.933594 279.394531 8.609375 Z M 291.042969 2.601562 C 291.042969 2.28125 291.304688 2.023438 291.628906 2.023438 L 295.300781 2.023438 C 295.621094 2.023438 295.886719 2.28125 295.886719 2.601562 L 295.886719 8.609375 C 295.882812 8.933594 295.621094 9.195312 295.300781 9.195312 L 291.628906 9.195312 C 291.308594 9.195312 291.046875 8.933594 291.042969 8.609375 Z M 31.242188 -0.328125 L 31.242188 60.292969 L 299.375 60.292969 L 299.375 -0.328125 L 31.242188 -0.328125 " fill-opacity="1" fill-rule="nonzero"/></g></g></g></g></g></g><g mask="url(#b7b638de13)"><g transform="matrix(1, 0, 0, 1, 1028, -0.000000000000001479)"><g clip-path="url(#8947ef389b)"><g clip-path="url(#4edd22dc32)"><g clip-path="url(#e8b9280cfa)"><g clip-path="url(#0a0bae559a)"><path fill="#fa5300" d="M 297.457031 45.847656 C 297.457031 47.269531 296.304688 48.421875 294.882812 48.421875 L 249.582031 48.421875 C 248.164062 48.421875 247.011719 47.269531 247.007812 45.847656 L 247.007812 14.113281 C 247.011719 12.695312 248.164062 11.539062 249.582031 11.539062 L 294.882812 11.539062 C 296.304688 11.539062 297.457031 12.691406 297.457031 14.113281 Z M 295.984375 57.355469 C 295.980469 57.675781 295.71875 57.9375 295.398438 57.9375 L 291.726562 57.9375 C 291.402344 57.9375 291.140625 57.675781 291.140625 57.355469 L 291.140625 51.347656 C 291.140625 51.027344 291.402344 50.765625 291.726562 50.765625 L 295.398438 50.765625 C 295.71875 50.765625 295.980469 51.03125 295.980469 51.347656 Z M 284.332031 57.355469 C 284.332031 57.675781 284.070312 57.9375 283.75 57.9375 L 280.078125 57.9375 C 279.753906 57.9375 279.488281 57.675781 279.492188 57.355469 L 279.492188 51.347656 C 279.492188 51.027344 279.753906 50.765625 280.074219 50.765625 L 283.746094 50.765625 C 284.070312 50.765625 284.332031 51.027344 284.332031 51.347656 Z M 272.679688 57.351562 C 272.679688 57.675781 272.417969 57.9375 272.097656 57.9375 L 268.421875 57.9375 C 268.101562 57.9375 267.839844 57.675781 267.839844 57.355469 L 267.839844 51.347656 C 267.839844 51.027344 268.105469 50.765625 268.421875 50.765625 L 272.097656 50.765625 C 272.421875 50.765625 272.679688 51.03125 272.679688 51.347656 Z M 261.03125 57.355469 C 261.027344 57.675781 260.765625 57.9375 260.449219 57.9375 L 256.773438 57.9375 C 256.449219 57.9375 256.191406 57.675781 256.191406 57.355469 L 256.191406 51.347656 C 256.191406 51.027344 256.453125 50.765625 256.773438 50.765625 L 260.445312 50.765625 C 260.769531 50.765625 261.03125 51.027344 261.027344 51.347656 Z M 249.378906 57.355469 C 249.378906 57.675781 249.117188 57.9375 248.796875 57.9375 L 245.125 57.9375 C 244.800781 57.9375 244.539062 57.675781 244.539062 57.355469 L 244.539062 51.347656 C 244.539062 51.027344 244.800781 50.765625 245.121094 50.765625 L 248.792969 50.765625 C 249.117188 50.765625 249.378906 51.027344 249.378906 51.347656 Z M 244.042969 45.847656 C 244.042969 47.269531 242.890625 48.421875 241.46875 48.421875 L 196.167969 48.421875 C 194.75 48.421875 193.59375 47.269531 193.597656 45.847656 L 193.597656 14.113281 C 193.59375 12.695312 194.75 11.539062 196.167969 11.539062 L 241.46875 11.539062 C 242.890625 11.539062 244.042969 12.691406 244.042969 14.113281 Z M 237.730469 57.355469 C 237.730469 57.675781 237.464844 57.9375 237.144531 57.9375 L 233.472656 57.9375 C 233.152344 57.9375 232.890625 57.675781 232.890625 57.355469 L 232.890625 51.347656 C 232.890625 51.027344 233.152344 50.765625 233.472656 50.765625 L 237.144531 50.765625 C 237.46875 50.765625 237.730469 51.027344 237.730469 51.347656 Z M 226.078125 57.355469 C 226.078125 57.675781 225.816406 57.9375 225.496094 57.9375 L 221.820312 57.9375 C 221.503906 57.9375 221.238281 57.675781 221.238281 57.355469 L 221.238281 51.347656 C 221.238281 51.027344 221.5 50.765625 221.820312 50.765625 L 225.492188 50.765625 C 225.816406 50.765625 226.078125 51.027344 226.074219 51.347656 Z M 214.425781 57.355469 C 214.425781 57.675781 214.164062 57.9375 213.847656 57.9375 L 210.171875 57.9375 C 209.847656 57.9375 209.589844 57.675781 209.589844 57.355469 L 209.589844 51.347656 C 209.589844 51.027344 209.847656 50.765625 210.167969 50.765625 L 213.847656 50.765625 C 214.164062 50.765625 214.425781 51.027344 214.429688 51.347656 Z M 202.777344 57.355469 C 202.777344 57.675781 202.511719 57.9375 202.191406 57.9375 L 198.523438 57.9375 C 198.199219 57.9375 197.9375 57.675781 197.9375 57.355469 L 197.9375 51.347656 C 197.9375 51.027344 198.199219 50.765625 198.519531 50.765625 L 202.191406 50.765625 C 202.515625 50.765625 202.777344 51.027344 202.777344 51.347656 Z M 191.128906 8.609375 C 191.128906 8.933594 190.867188 9.195312 190.542969 9.195312 L 186.875 9.195312 C 186.550781 9.195312 186.285156 8.933594 186.289062 8.609375 L 186.285156 2.605469 C 186.289062 2.28125 186.550781 2.023438 186.871094 2.023438 L 190.542969 2.023438 C 190.863281 2.023438 191.128906 2.28125 191.128906 2.605469 Z M 191.128906 57.355469 C 191.128906 57.675781 190.863281 57.9375 190.542969 57.9375 L 186.871094 57.9375 C 186.550781 57.9375 186.285156 57.675781 186.285156 57.355469 L 186.289062 51.347656 C 186.285156 51.027344 186.550781 50.765625 186.875 50.765625 L 190.542969 50.765625 C 190.867188 50.765625 191.128906 51.027344 191.128906 51.347656 Z M 179.476562 57.355469 C 179.472656 57.675781 179.21875 57.9375 178.894531 57.9375 L 175.21875 57.9375 C 174.902344 57.9375 174.640625 57.675781 174.636719 57.355469 L 174.636719 51.347656 C 174.636719 51.027344 174.898438 50.765625 175.21875 50.765625 L 178.894531 50.765625 C 179.214844 50.765625 179.476562 51.027344 179.476562 51.347656 Z M 167.824219 57.355469 C 167.824219 57.675781 167.5625 57.9375 167.242188 57.9375 L 163.570312 57.9375 C 163.25 57.9375 162.988281 57.675781 162.988281 57.355469 L 162.988281 51.347656 C 162.988281 51.027344 163.246094 50.765625 163.570312 50.765625 L 167.246094 50.765625 C 167.5625 50.765625 167.824219 51.027344 167.824219 51.347656 Z M 156.175781 57.355469 C 156.175781 57.675781 155.910156 57.9375 155.589844 57.9375 L 151.917969 57.9375 C 151.597656 57.9375 151.335938 57.675781 151.335938 57.355469 L 151.335938 51.347656 C 151.335938 51.027344 151.597656 50.765625 151.921875 50.765625 L 155.589844 50.765625 C 155.914062 50.765625 156.175781 51.027344 156.175781 51.347656 Z M 144.527344 57.355469 C 144.527344 57.675781 144.265625 57.9375 143.941406 57.9375 L 140.269531 57.9375 C 139.949219 57.9375 139.6875 57.675781 139.683594 57.355469 L 139.683594 51.347656 C 139.683594 51.027344 139.945312 50.765625 140.269531 50.765625 L 143.941406 50.765625 C 144.261719 50.765625 144.527344 51.027344 144.527344 51.347656 Z M 137.214844 45.847656 C 137.214844 47.269531 136.058594 48.421875 134.640625 48.421875 L 89.339844 48.421875 C 87.917969 48.421875 86.765625 47.269531 86.765625 45.847656 L 86.765625 14.113281 C 86.765625 12.695312 87.921875 11.539062 89.339844 11.539062 L 134.640625 11.539062 C 136.058594 11.539062 137.214844 12.695312 137.214844 14.113281 Z M 132.871094 57.355469 C 132.871094 57.675781 132.613281 57.9375 132.292969 57.941406 L 128.617188 57.9375 C 128.296875 57.9375 128.035156 57.675781 128.035156 57.355469 L 128.035156 51.347656 C 128.035156 51.03125 128.296875 50.765625 128.617188 50.765625 L 132.292969 50.765625 C 132.613281 50.765625 132.871094 51.027344 132.871094 51.347656 Z M 121.222656 57.355469 C 121.222656 57.675781 120.960938 57.9375 120.640625 57.941406 L 116.964844 57.9375 C 116.644531 57.9375 116.386719 57.675781 116.386719 57.351562 L 116.386719 51.347656 C 116.386719 51.03125 116.644531 50.765625 116.96875 50.765625 L 120.640625 50.765625 C 120.960938 50.765625 121.222656 51.027344 121.222656 51.347656 Z M 109.574219 57.355469 C 109.574219 57.675781 109.3125 57.9375 108.988281 57.941406 L 105.316406 57.9375 C 104.996094 57.9375 104.730469 57.675781 104.730469 57.355469 L 104.730469 51.347656 C 104.730469 51.027344 104.996094 50.765625 105.316406 50.765625 L 108.988281 50.765625 C 109.308594 50.765625 109.574219 51.027344 109.574219 51.347656 Z M 97.921875 57.355469 C 97.925781 57.675781 97.660156 57.9375 97.339844 57.941406 L 93.667969 57.9375 C 93.347656 57.9375 93.082031 57.675781 93.082031 57.355469 L 93.082031 51.347656 C 93.082031 51.027344 93.347656 50.765625 93.667969 50.765625 L 97.339844 50.765625 C 97.660156 50.765625 97.921875 51.03125 97.921875 51.347656 Z M 86.269531 8.609375 C 86.269531 8.933594 86.011719 9.195312 85.6875 9.195312 L 82.015625 9.195312 C 81.695312 9.195312 81.433594 8.933594 81.433594 8.609375 L 81.433594 2.605469 C 81.433594 2.28125 81.695312 2.023438 82.015625 2.023438 L 85.6875 2.023438 C 86.011719 2.023438 86.269531 2.28125 86.269531 2.605469 Z M 86.269531 57.355469 C 86.269531 57.675781 86.011719 57.9375 85.6875 57.941406 L 82.015625 57.9375 C 81.695312 57.9375 81.433594 57.675781 81.433594 57.351562 L 81.433594 51.347656 C 81.433594 51.027344 81.695312 50.765625 82.015625 50.765625 L 85.691406 50.765625 C 86.011719 50.765625 86.269531 51.027344 86.269531 51.347656 Z M 35.925781 48.421875 C 34.503906 48.421875 33.351562 47.269531 33.351562 45.847656 L 33.351562 14.113281 C 33.351562 12.691406 34.503906 11.539062 35.925781 11.539062 L 81.226562 11.539062 C 82.644531 11.539062 83.796875 12.695312 83.800781 14.113281 L 83.800781 45.847656 C 83.800781 47.269531 82.644531 48.421875 81.226562 48.421875 Z M 74.621094 57.355469 C 74.621094 57.675781 74.359375 57.9375 74.039062 57.9375 L 70.363281 57.9375 C 70.042969 57.9375 69.785156 57.675781 69.785156 57.351562 L 69.785156 51.347656 C 69.785156 51.027344 70.042969 50.765625 70.363281 50.765625 L 74.039062 50.765625 C 74.359375 50.765625 74.621094 51.03125 74.621094 51.347656 Z M 62.96875 57.355469 C 62.972656 57.675781 62.710938 57.9375 62.386719 57.9375 L 58.714844 57.941406 C 58.394531 57.9375 58.128906 57.675781 58.132812 57.351562 L 58.128906 51.347656 C 58.128906 51.027344 58.394531 50.765625 58.714844 50.765625 L 62.386719 50.765625 C 62.707031 50.765625 62.972656 51.03125 62.972656 51.347656 Z M 51.324219 57.355469 C 51.320312 57.675781 51.058594 57.9375 50.738281 57.941406 L 47.066406 57.9375 C 46.742188 57.9375 46.480469 57.675781 46.480469 57.351562 L 46.480469 51.347656 C 46.480469 51.03125 46.746094 50.765625 47.066406 50.765625 L 50.738281 50.765625 C 51.058594 50.765625 51.320312 51.03125 51.320312 51.347656 Z M 39.667969 57.355469 C 39.667969 57.675781 39.410156 57.9375 39.089844 57.9375 L 35.410156 57.941406 C 35.09375 57.9375 34.832031 57.675781 34.832031 57.351562 L 34.832031 51.347656 C 34.832031 51.027344 35.09375 50.765625 35.414062 50.765625 L 39.085938 50.765625 C 39.410156 50.765625 39.667969 51.03125 39.667969 51.347656 Z M 34.832031 2.605469 C 34.832031 2.28125 35.09375 2.023438 35.410156 2.023438 L 39.089844 2.023438 C 39.410156 2.023438 39.667969 2.28125 39.667969 2.601562 L 39.667969 8.609375 C 39.667969 8.933594 39.410156 9.195312 39.085938 9.195312 L 35.414062 9.195312 C 35.09375 9.195312 34.832031 8.933594 34.832031 8.609375 Z M 46.480469 2.601562 C 46.480469 2.28125 46.742188 2.023438 47.066406 2.023438 L 50.738281 2.023438 C 51.058594 2.023438 51.320312 2.28125 51.324219 2.601562 L 51.320312 8.609375 C 51.324219 8.933594 51.058594 9.195312 50.738281 9.195312 L 47.066406 9.195312 C 46.746094 9.195312 46.480469 8.933594 46.480469 8.609375 Z M 58.128906 2.601562 C 58.128906 2.28125 58.394531 2.023438 58.714844 2.023438 L 62.386719 2.023438 C 62.710938 2.023438 62.972656 2.28125 62.972656 2.601562 L 62.972656 8.609375 C 62.972656 8.933594 62.707031 9.195312 62.386719 9.195312 L 58.714844 9.195312 C 58.394531 9.195312 58.132812 8.933594 58.128906 8.609375 Z M 69.785156 2.605469 C 69.785156 2.28125 70.042969 2.023438 70.363281 2.023438 L 74.039062 2.023438 C 74.359375 2.023438 74.621094 2.28125 74.621094 2.601562 L 74.621094 8.609375 C 74.621094 8.933594 74.359375 9.195312 74.039062 9.195312 L 70.363281 9.195312 C 70.042969 9.195312 69.785156 8.933594 69.785156 8.609375 Z M 93.082031 2.601562 C 93.082031 2.28125 93.347656 2.023438 93.667969 2.023438 L 97.339844 2.023438 C 97.664062 2.023438 97.921875 2.28125 97.925781 2.601562 L 97.925781 8.609375 C 97.921875 8.933594 97.660156 9.195312 97.339844 9.195312 L 93.667969 9.195312 C 93.347656 9.195312 93.082031 8.933594 93.082031 8.609375 Z M 104.734375 2.601562 C 104.734375 2.28125 104.996094 2.023438 105.316406 2.023438 L 108.988281 2.023438 C 109.3125 2.023438 109.574219 2.28125 109.574219 2.605469 L 109.574219 8.609375 C 109.574219 8.933594 109.308594 9.195312 108.988281 9.195312 L 105.316406 9.195312 C 104.992188 9.195312 104.730469 8.933594 104.734375 8.609375 Z M 116.386719 2.605469 C 116.386719 2.28125 116.644531 2.023438 116.96875 2.023438 L 120.640625 2.023438 C 120.960938 2.023438 121.222656 2.28125 121.222656 2.605469 L 121.222656 8.609375 C 121.222656 8.933594 120.960938 9.195312 120.644531 9.195312 L 116.96875 9.195312 C 116.644531 9.195312 116.386719 8.933594 116.386719 8.609375 Z M 128.035156 2.601562 C 128.035156 2.28125 128.296875 2.023438 128.617188 2.023438 L 132.292969 2.023438 C 132.613281 2.023438 132.871094 2.28125 132.871094 2.605469 L 132.871094 8.609375 C 132.871094 8.933594 132.613281 9.195312 132.292969 9.195312 L 128.617188 9.195312 C 128.300781 9.195312 128.035156 8.933594 128.035156 8.609375 Z M 139.6875 2.601562 C 139.683594 2.28125 139.949219 2.023438 140.269531 2.023438 L 143.941406 2.023438 C 144.261719 2.023438 144.527344 2.28125 144.527344 2.601562 L 144.527344 8.609375 C 144.527344 8.933594 144.261719 9.195312 143.941406 9.195312 L 140.269531 9.195312 C 139.945312 9.199219 139.683594 8.933594 139.683594 8.609375 Z M 151.332031 2.605469 C 151.335938 2.28125 151.597656 2.023438 151.917969 2.023438 L 155.589844 2.023438 C 155.910156 2.023438 156.175781 2.28125 156.175781 2.605469 L 156.175781 8.609375 C 156.175781 8.933594 155.914062 9.195312 155.589844 9.195312 L 151.921875 9.195312 C 151.597656 9.195312 151.335938 8.933594 151.335938 8.609375 Z M 162.988281 2.601562 C 162.988281 2.28125 163.246094 2.023438 163.570312 2.023438 L 167.242188 2.023438 C 167.5625 2.023438 167.824219 2.28125 167.824219 2.605469 L 167.824219 8.613281 C 167.824219 8.933594 167.5625 9.195312 167.246094 9.195312 L 163.570312 9.195312 C 163.246094 9.195312 162.988281 8.933594 162.988281 8.609375 Z M 188.054688 11.539062 C 189.472656 11.539062 190.628906 12.691406 190.628906 14.113281 L 190.628906 45.847656 C 190.628906 47.269531 189.472656 48.421875 188.054688 48.421875 L 142.753906 48.421875 C 141.335938 48.421875 140.183594 47.269531 140.179688 45.847656 L 140.179688 14.113281 C 140.179688 12.695312 141.335938 11.539062 142.753906 11.539062 Z M 174.636719 2.605469 C 174.636719 2.28125 174.898438 2.023438 175.21875 2.023438 L 178.894531 2.023438 C 179.214844 2.023438 179.472656 2.28125 179.472656 2.605469 L 179.472656 8.613281 C 179.476562 8.933594 179.214844 9.195312 178.894531 9.195312 L 175.21875 9.195312 C 174.898438 9.195312 174.636719 8.933594 174.636719 8.609375 Z M 197.9375 2.605469 C 197.9375 2.28125 198.199219 2.023438 198.523438 2.023438 L 202.191406 2.023438 C 202.511719 2.023438 202.777344 2.28125 202.777344 2.605469 L 202.777344 8.609375 C 202.777344 8.933594 202.515625 9.195312 202.191406 9.195312 L 198.523438 9.195312 C 198.199219 9.195312 197.9375 8.933594 197.9375 8.609375 Z M 209.589844 2.605469 C 209.589844 2.28125 209.847656 2.023438 210.171875 2.023438 L 213.847656 2.023438 C 214.164062 2.023438 214.425781 2.28125 214.429688 2.605469 L 214.425781 8.609375 C 214.425781 8.933594 214.164062 9.195312 213.847656 9.195312 L 210.167969 9.195312 C 209.847656 9.195312 209.589844 8.933594 209.589844 8.609375 Z M 221.238281 2.605469 C 221.238281 2.28125 221.503906 2.023438 221.820312 2.023438 L 225.496094 2.023438 C 225.816406 2.023438 226.074219 2.28125 226.074219 2.601562 L 226.078125 8.609375 C 226.078125 8.933594 225.816406 9.195312 225.496094 9.195312 L 221.820312 9.195312 C 221.5 9.195312 221.238281 8.933594 221.238281 8.609375 Z M 232.890625 2.605469 C 232.890625 2.28125 233.152344 2.023438 233.472656 2.023438 L 237.144531 2.023438 C 237.464844 2.023438 237.730469 2.28125 237.730469 2.605469 L 237.730469 8.609375 C 237.730469 8.933594 237.46875 9.195312 237.144531 9.195312 L 233.472656 9.195312 C 233.152344 9.195312 232.890625 8.933594 232.886719 8.609375 Z M 244.539062 2.605469 C 244.539062 2.28125 244.800781 2.023438 245.125 2.023438 L 248.796875 2.023438 C 249.117188 2.023438 249.378906 2.28125 249.378906 2.605469 L 249.378906 8.613281 C 249.378906 8.933594 249.117188 9.195312 248.792969 9.195312 L 245.121094 9.195312 C 244.800781 9.195312 244.539062 8.933594 244.539062 8.609375 Z M 256.191406 2.605469 C 256.191406 2.28125 256.449219 2.023438 256.773438 2.023438 L 260.449219 2.023438 C 260.765625 2.023438 261.027344 2.28125 261.027344 2.601562 L 261.027344 8.609375 C 261.03125 8.933594 260.765625 9.195312 260.449219 9.195312 L 256.773438 9.195312 C 256.453125 9.195312 256.191406 8.933594 256.191406 8.609375 Z M 267.839844 2.605469 C 267.839844 2.28125 268.105469 2.023438 268.421875 2.023438 L 272.097656 2.023438 C 272.417969 2.023438 272.679688 2.28125 272.679688 2.601562 L 272.679688 8.609375 C 272.679688 8.933594 272.421875 9.195312 272.097656 9.195312 L 268.421875 9.195312 C 268.105469 9.195312 267.839844 8.933594 267.839844 8.609375 Z M 279.492188 2.605469 C 279.488281 2.28125 279.753906 2.023438 280.078125 2.023438 L 283.75 2.023438 C 284.070312 2.023438 284.332031 2.28125 284.332031 2.601562 L 284.332031 8.609375 C 284.332031 8.933594 284.070312 9.195312 283.746094 9.195312 L 280.074219 9.195312 C 279.753906 9.195312 279.492188 8.933594 279.488281 8.609375 Z M 291.140625 2.601562 C 291.140625 2.28125 291.402344 2.023438 291.726562 2.023438 L 295.398438 2.023438 C 295.71875 2.023438 295.980469 2.28125 295.980469 2.601562 L 295.980469 8.609375 C 295.980469 8.933594 295.71875 9.195312 295.398438 9.195312 L 291.726562 9.195312 C 291.402344 9.195312 291.140625 8.933594 291.140625 8.609375 Z M 31.339844 -0.328125 L 31.335938 60.292969 L 299.472656 60.292969 L 299.472656 -0.328125 L 31.339844 -0.328125 " fill-opacity="1" fill-rule="nonzero"/></g></g></g></g></g></g></svg>